<svg xmlns="http://www.w3.org/2000/svg" xmlns:xlink="http://www.w3.org/1999/xlink" width="462" zoomAndPan="magnify"
     viewBox="0 0 346.5 124.499996" height="166" preserveAspectRatio="xMidYMid meet" version="1.0">
    <defs>
        <g/>
        <clipPath id="ad99cc33ed">
            <path d="M 185.433594 40.007812 L 218.691406 40.007812 L 218.691406 43.324219 L 185.433594 43.324219 Z M 185.433594 40.007812 "
                  clip-rule="nonzero"/>
        </clipPath>
        <clipPath id="da4626e610">
            <path d="M 130 40 L 164 40 L 164 43.324219 L 130 43.324219 Z M 130 40 " clip-rule="nonzero"/>
        </clipPath>
        <clipPath id="b8ac2fe68e">
            <path d="M 162 32 L 187 32 L 187 43.324219 L 162 43.324219 Z M 162 32 " clip-rule="nonzero"/>
        </clipPath>
    </defs>
    <g clip-path="url(#ad99cc33ed)">
        <path fill="#575656"
              d="M 185.8125 43.726562 C 185.679688 43.726562 185.5625 43.625 185.550781 43.484375 C 185.535156 43.339844 185.644531 43.210938 185.789062 43.199219 L 218.402344 40.175781 C 218.542969 40.160156 218.675781 40.269531 218.691406 40.414062 C 218.703125 40.5625 218.597656 40.691406 218.449219 40.703125 L 185.839844 43.726562 C 185.832031 43.726562 185.824219 43.726562 185.8125 43.726562 "
              fill-opacity="1" fill-rule="nonzero"/>
    </g>
    <path fill="#575656"
          d="M 185.425781 41.640625 C 185.3125 41.640625 185.203125 41.5625 185.171875 41.445312 C 185.128906 41.304688 185.214844 41.160156 185.355469 41.117188 L 208.6875 34.476562 C 208.828125 34.4375 208.976562 34.519531 209.015625 34.660156 C 209.058594 34.800781 208.976562 34.949219 208.832031 34.988281 L 185.5 41.628906 C 185.476562 41.636719 185.449219 41.640625 185.425781 41.640625 "
          fill-opacity="1" fill-rule="nonzero"/>
    <path fill="#575656"
          d="M 184.660156 39.660156 C 184.5625 39.660156 184.46875 39.605469 184.421875 39.511719 C 184.355469 39.378906 184.410156 39.222656 184.539062 39.15625 L 206.257812 28.34375 L 213.855469 24.558594 C 213.988281 24.492188 214.148438 24.546875 214.210938 24.679688 C 214.277344 24.808594 214.226562 24.96875 214.09375 25.035156 L 206.492188 28.820312 L 184.777344 39.632812 C 184.738281 39.648438 184.699219 39.660156 184.660156 39.660156 "
          fill-opacity="1" fill-rule="nonzero"/>
    <path fill="#575656"
          d="M 183.539062 37.855469 C 183.460938 37.855469 183.378906 37.820312 183.328125 37.75 C 183.238281 37.632812 183.261719 37.464844 183.378906 37.378906 L 202.734375 22.757812 C 202.851562 22.671875 203.019531 22.695312 203.109375 22.8125 C 203.195312 22.929688 203.171875 23.09375 203.058594 23.183594 L 183.699219 37.800781 C 183.652344 37.835938 183.59375 37.855469 183.539062 37.855469 "
          fill-opacity="1" fill-rule="nonzero"/>
    <path fill="#575656"
          d="M 182.109375 36.285156 C 182.046875 36.285156 181.980469 36.261719 181.929688 36.21875 C 181.820312 36.117188 181.8125 35.949219 181.914062 35.84375 L 203.976562 11.636719 C 204.074219 11.53125 204.242188 11.523438 204.351562 11.621094 C 204.460938 11.71875 204.46875 11.886719 204.371094 11.996094 L 182.304688 36.199219 C 182.253906 36.257812 182.179688 36.285156 182.109375 36.285156 "
          fill-opacity="1" fill-rule="nonzero"/>
    <path fill="#575656"
          d="M 180.414062 35.003906 C 180.367188 35.003906 180.320312 34.992188 180.273438 34.964844 C 180.148438 34.886719 180.113281 34.722656 180.1875 34.597656 L 192.960938 13.976562 C 193.039062 13.851562 193.203125 13.8125 193.324219 13.890625 C 193.449219 13.964844 193.488281 14.128906 193.410156 14.253906 L 180.640625 34.878906 C 180.589844 34.960938 180.503906 35.003906 180.414062 35.003906 "
          fill-opacity="1" fill-rule="nonzero"/>
    <path fill="#575656"
          d="M 178.511719 34.058594 C 178.480469 34.058594 178.449219 34.050781 178.417969 34.039062 C 178.28125 33.988281 178.214844 33.832031 178.265625 33.695312 L 190.097656 3.160156 C 190.148438 3.019531 190.304688 2.953125 190.441406 3.007812 C 190.578125 3.058594 190.644531 3.210938 190.59375 3.351562 L 178.761719 33.886719 C 178.71875 33.992188 178.621094 34.058594 178.511719 34.058594 "
          fill-opacity="1" fill-rule="nonzero"/>
    <path fill="#575656"
          d="M 176.472656 33.476562 C 176.457031 33.476562 176.441406 33.476562 176.421875 33.472656 C 176.277344 33.445312 176.183594 33.308594 176.210938 33.164062 L 180.667969 9.320312 C 180.695312 9.175781 180.835938 9.078125 180.980469 9.105469 C 181.121094 9.132812 181.21875 9.269531 181.191406 9.414062 L 176.734375 33.261719 C 176.710938 33.386719 176.597656 33.476562 176.472656 33.476562 "
          fill-opacity="1" fill-rule="nonzero"/>
    <path fill="#575656"
          d="M 174.355469 33.28125 C 174.210938 33.28125 174.089844 33.164062 174.089844 33.015625 L 174.089844 0.265625 C 174.089844 0.117188 174.210938 0 174.355469 0 C 174.503906 0 174.621094 0.117188 174.621094 0.265625 L 174.621094 33.015625 C 174.621094 33.164062 174.503906 33.28125 174.355469 33.28125 "
          fill-opacity="1" fill-rule="nonzero"/>
    <path fill="#575656"
          d="M 172.242188 33.476562 C 172.117188 33.476562 172.003906 33.386719 171.980469 33.261719 L 167.523438 9.414062 C 167.496094 9.269531 167.589844 9.132812 167.734375 9.105469 C 167.878906 9.078125 168.015625 9.175781 168.042969 9.320312 L 172.503906 33.164062 C 172.527344 33.308594 172.433594 33.445312 172.289062 33.472656 C 172.273438 33.476562 172.257812 33.476562 172.242188 33.476562 "
          fill-opacity="1" fill-rule="nonzero"/>
    <path fill="#575656"
          d="M 170.199219 34.058594 C 170.09375 34.058594 169.992188 33.992188 169.953125 33.886719 L 158.121094 3.351562 C 158.066406 3.210938 158.136719 3.058594 158.273438 3.007812 C 158.410156 2.953125 158.5625 3.019531 158.617188 3.160156 L 170.449219 33.695312 C 170.5 33.832031 170.433594 33.988281 170.296875 34.039062 C 170.265625 34.050781 170.230469 34.058594 170.199219 34.058594 "
          fill-opacity="1" fill-rule="nonzero"/>
    <path fill="#575656"
          d="M 168.300781 35.003906 C 168.210938 35.003906 168.125 34.960938 168.074219 34.878906 L 155.300781 14.253906 C 155.226562 14.128906 155.261719 13.964844 155.386719 13.890625 C 155.511719 13.8125 155.675781 13.851562 155.753906 13.976562 L 168.523438 34.597656 C 168.601562 34.722656 168.5625 34.886719 168.4375 34.964844 C 168.394531 34.992188 168.347656 35.003906 168.300781 35.003906 "
          fill-opacity="1" fill-rule="nonzero"/>
    <path fill="#575656"
          d="M 166.605469 36.285156 C 166.53125 36.285156 166.460938 36.257812 166.410156 36.199219 L 144.34375 11.996094 C 144.246094 11.886719 144.253906 11.71875 144.363281 11.621094 C 144.472656 11.523438 144.640625 11.53125 144.738281 11.636719 L 166.800781 35.84375 C 166.898438 35.949219 166.890625 36.117188 166.785156 36.21875 C 166.734375 36.261719 166.667969 36.285156 166.605469 36.285156 "
          fill-opacity="1" fill-rule="nonzero"/>
    <path fill="#575656"
          d="M 165.175781 37.855469 C 165.117188 37.855469 165.0625 37.835938 165.015625 37.800781 L 145.65625 23.183594 C 145.539062 23.09375 145.515625 22.929688 145.605469 22.8125 C 145.695312 22.695312 145.859375 22.671875 145.976562 22.757812 L 165.335938 37.378906 C 165.449219 37.464844 165.476562 37.632812 165.386719 37.75 C 165.335938 37.820312 165.253906 37.855469 165.175781 37.855469 "
          fill-opacity="1" fill-rule="nonzero"/>
    <path fill="#575656"
          d="M 164.054688 39.660156 C 164.015625 39.660156 163.976562 39.648438 163.9375 39.632812 L 134.621094 25.035156 C 134.488281 24.96875 134.4375 24.808594 134.5 24.679688 C 134.566406 24.546875 134.726562 24.492188 134.855469 24.558594 L 142.457031 28.34375 L 164.175781 39.15625 C 164.304688 39.222656 164.359375 39.378906 164.292969 39.511719 C 164.246094 39.605469 164.152344 39.660156 164.054688 39.660156 "
          fill-opacity="1" fill-rule="nonzero"/>
    <path fill="#575656"
          d="M 163.289062 41.640625 C 163.261719 41.640625 163.238281 41.636719 163.214844 41.628906 L 139.878906 34.988281 C 139.738281 34.949219 139.65625 34.800781 139.695312 34.660156 C 139.738281 34.519531 139.882812 34.4375 140.023438 34.476562 L 163.359375 41.117188 C 163.5 41.160156 163.582031 41.304688 163.542969 41.445312 C 163.507812 41.5625 163.402344 41.640625 163.289062 41.640625 "
          fill-opacity="1" fill-rule="nonzero"/>
    <g clip-path="url(#da4626e610)">
        <path fill="#575656"
              d="M 162.898438 43.726562 C 162.890625 43.726562 162.882812 43.726562 162.875 43.726562 L 130.265625 40.703125 C 130.117188 40.691406 130.011719 40.5625 130.023438 40.414062 C 130.035156 40.269531 130.164062 40.160156 130.3125 40.175781 L 162.921875 43.199219 C 163.070312 43.210938 163.175781 43.339844 163.164062 43.484375 C 163.152344 43.625 163.035156 43.726562 162.898438 43.726562 "
              fill-opacity="1" fill-rule="nonzero"/>
    </g>
    <g clip-path="url(#b8ac2fe68e)">
        <path fill="#575656"
              d="M 174.355469 33.28125 C 173.664062 33.28125 172.96875 33.347656 172.289062 33.472656 C 171.605469 33.597656 170.933594 33.789062 170.296875 34.039062 C 169.652344 34.285156 169.03125 34.597656 168.4375 34.964844 C 167.855469 35.328125 167.296875 35.75 166.785156 36.21875 C 166.269531 36.683594 165.800781 37.199219 165.386719 37.75 C 164.96875 38.300781 164.601562 38.894531 164.292969 39.511719 C 163.980469 40.132812 163.730469 40.78125 163.542969 41.445312 C 163.351562 42.117188 163.222656 42.804688 163.164062 43.484375 C 163.132812 43.820312 163.113281 44.167969 163.113281 44.523438 C 163.113281 44.878906 163.132812 45.226562 163.164062 45.558594 C 163.222656 46.246094 163.351562 46.929688 163.542969 47.601562 C 163.730469 48.265625 163.980469 48.914062 164.292969 49.535156 C 164.601562 50.152344 164.96875 50.746094 165.386719 51.296875 C 165.800781 51.851562 166.269531 52.363281 166.78125 52.832031 C 167.296875 53.300781 167.855469 53.722656 168.4375 54.082031 C 169.03125 54.449219 169.652344 54.761719 170.296875 55.007812 C 170.933594 55.257812 171.605469 55.449219 172.289062 55.574219 C 173.648438 55.828125 175.066406 55.828125 176.421875 55.574219 C 177.109375 55.449219 177.777344 55.257812 178.417969 55.007812 C 179.058594 54.761719 179.683594 54.449219 180.273438 54.082031 C 180.859375 53.71875 181.414062 53.300781 181.929688 52.832031 C 182.441406 52.363281 182.914062 51.851562 183.328125 51.296875 C 183.746094 50.746094 184.113281 50.152344 184.421875 49.535156 C 184.730469 48.914062 184.984375 48.265625 185.171875 47.601562 C 185.363281 46.929688 185.488281 46.246094 185.550781 45.5625 C 185.582031 45.226562 185.597656 44.878906 185.597656 44.523438 C 185.597656 44.167969 185.582031 43.820312 185.550781 43.488281 L 185.550781 43.484375 C 185.488281 42.804688 185.363281 42.117188 185.171875 41.445312 C 184.984375 40.78125 184.730469 40.132812 184.421875 39.511719 C 184.113281 38.894531 183.746094 38.300781 183.328125 37.75 C 182.914062 37.199219 182.441406 36.683594 181.929688 36.21875 C 181.417969 35.75 180.859375 35.328125 180.273438 34.964844 C 179.683594 34.597656 179.058594 34.285156 178.417969 34.039062 C 177.777344 33.789062 177.109375 33.597656 176.421875 33.472656 C 175.746094 33.347656 175.050781 33.28125 174.355469 33.28125 Z M 174.355469 56.296875 C 173.632812 56.296875 172.902344 56.230469 172.191406 56.097656 C 171.476562 55.964844 170.773438 55.765625 170.105469 55.503906 C 169.433594 55.246094 168.777344 54.917969 168.160156 54.535156 C 167.546875 54.15625 166.964844 53.714844 166.425781 53.222656 C 165.890625 52.734375 165.398438 52.195312 164.960938 51.617188 C 164.523438 51.039062 164.140625 50.417969 163.816406 49.773438 C 163.492188 49.125 163.226562 48.441406 163.03125 47.746094 C 162.832031 47.042969 162.699219 46.324219 162.632812 45.609375 C 162.601562 45.261719 162.585938 44.894531 162.585938 44.523438 C 162.585938 44.152344 162.601562 43.789062 162.636719 43.4375 C 162.699219 42.722656 162.832031 42.003906 163.03125 41.300781 C 163.226562 40.605469 163.492188 39.921875 163.816406 39.273438 C 164.140625 38.628906 164.523438 38.007812 164.960938 37.429688 C 165.398438 36.851562 165.890625 36.3125 166.425781 35.824219 C 166.964844 35.332031 167.546875 34.894531 168.160156 34.511719 C 168.777344 34.128906 169.433594 33.804688 170.105469 33.542969 C 170.773438 33.285156 171.476562 33.082031 172.191406 32.949219 C 173.613281 32.6875 175.101562 32.6875 176.519531 32.949219 C 177.238281 33.082031 177.941406 33.285156 178.609375 33.542969 C 179.28125 33.804688 179.9375 34.128906 180.554688 34.515625 C 181.167969 34.894531 181.75 35.332031 182.289062 35.824219 C 182.824219 36.3125 183.316406 36.851562 183.75 37.429688 C 184.1875 38.007812 184.574219 38.628906 184.894531 39.273438 C 185.222656 39.921875 185.484375 40.605469 185.683594 41.300781 C 185.882812 42.003906 186.015625 42.722656 186.078125 43.4375 C 186.113281 43.789062 186.128906 44.152344 186.128906 44.523438 C 186.128906 44.894531 186.113281 45.261719 186.078125 45.613281 C 186.015625 46.324219 185.882812 47.042969 185.683594 47.746094 C 185.484375 48.441406 185.222656 49.125 184.894531 49.773438 C 184.574219 50.417969 184.1875 51.039062 183.75 51.617188 C 183.316406 52.195312 182.824219 52.734375 182.289062 53.222656 C 181.75 53.714844 181.167969 54.15625 180.554688 54.535156 C 179.9375 54.917969 179.28125 55.246094 178.609375 55.503906 C 177.941406 55.765625 177.238281 55.964844 176.519531 56.097656 C 175.808594 56.230469 175.082031 56.296875 174.355469 56.296875 "
              fill-opacity="1" fill-rule="nonzero"/>
    </g>
    <g fill="#edb9c0" fill-opacity="1">
        <g transform="translate(21.863856, 92.709895)">
            <g>
                <path d="M 4.0625 0 L 4.59375 0 C 7.40625 0 11.515625 0.09375 13.765625 0.09375 C 26.53125 0.09375 32.9375 -7.65625 32.9375 -17.171875 C 32.9375 -25.921875 27.546875 -33.609375 14.15625 -33.609375 C 11.421875 -33.609375 6.84375 -33.46875 4.640625 -33.46875 L 4.0625 -33.46875 Z M 8.125 -32.65625 C 9.65625 -32.84375 11.46875 -32.890625 13.484375 -32.890625 C 23.234375 -32.890625 28.640625 -26.34375 28.59375 -16.6875 C 28.546875 -6.5 24.1875 -0.71875 14.4375 -0.71875 C 12.90625 -0.71875 10.1875 -0.71875 8.125 -0.953125 Z M 8.125 -32.65625 "/>
            </g>
        </g>
    </g>
    <g fill="#edb9c0" fill-opacity="1">
        <g transform="translate(55.664047, 92.709895)">
            <g>
                <path d="M 2.390625 -16.734375 C 2.390625 -6.546875 9.75 0.484375 19.9375 0.484375 C 29.640625 0.484375 37.484375 -6.796875 37.484375 -16.59375 C 37.484375 -26.921875 30.125 -33.953125 19.9375 -33.953125 C 9.515625 -33.953125 2.390625 -26.4375 2.390625 -16.734375 Z M 6.6875 -16.59375 C 6.6875 -25.8125 11.09375 -33.234375 19.3125 -33.234375 C 27.4375 -33.234375 33.1875 -26.25 33.1875 -16.734375 C 33.1875 -8.03125 29.125 -0.234375 20.515625 -0.234375 C 12.390625 -0.234375 6.6875 -7.984375 6.6875 -16.59375 Z M 6.6875 -16.59375 "/>
            </g>
        </g>
    </g>
    <g fill="#edb9c0" fill-opacity="1">
        <g transform="translate(94.005999, 92.709895)">
            <g>
                <path d="M -0.234375 -30.9375 C 0.90625 -31.515625 4.015625 -32.75 9.125 -32.75 L 11.46875 -32.75 L 11.46875 0 L 15.53125 0 L 15.53125 -32.75 L 16.875 -32.75 C 21.890625 -32.75 24.8125 -31.796875 26.25 -30.9375 L 26.78125 -33.46875 L 0.234375 -33.46875 Z M -0.234375 -30.9375 "/>
            </g>
        </g>
    </g>
    <g fill="#edb9c0" fill-opacity="1">
        <g transform="translate(119.487623, 92.709895)">
            <g/>
        </g>
    </g>
    <g fill="#edb9c0" fill-opacity="1">
        <g transform="translate(128.714548, 92.709895)">
            <g>
                <path d="M 22.46875 -33.46875 L 4.0625 -33.46875 L 4.0625 0 L 8.125 0 L 8.125 -17.0625 L 11.671875 -17.0625 C 14.203125 -17.0625 18.3125 -16.734375 20.078125 -16.25 L 20.078125 -18.640625 C 18.9375 -18.359375 16.453125 -17.78125 11.671875 -17.78125 L 8.125 -17.78125 L 8.125 -32.75 L 10.90625 -32.75 C 16.875 -32.75 19.5625 -31.9375 22 -31.078125 Z M 22.46875 -33.46875 "/>
            </g>
        </g>
    </g>
    <g fill="#edb9c0" fill-opacity="1">
        <g transform="translate(151.088643, 92.709895)">
            <g>
                <path d="M 2.390625 -16.734375 C 2.390625 -6.546875 9.75 0.484375 19.9375 0.484375 C 29.640625 0.484375 37.484375 -6.796875 37.484375 -16.59375 C 37.484375 -26.921875 30.125 -33.953125 19.9375 -33.953125 C 9.515625 -33.953125 2.390625 -26.4375 2.390625 -16.734375 Z M 6.6875 -16.59375 C 6.6875 -25.8125 11.09375 -33.234375 19.3125 -33.234375 C 27.4375 -33.234375 33.1875 -26.25 33.1875 -16.734375 C 33.1875 -8.03125 29.125 -0.234375 20.515625 -0.234375 C 12.390625 -0.234375 6.6875 -7.984375 6.6875 -16.59375 Z M 6.6875 -16.59375 "/>
            </g>
        </g>
    </g>
    <g fill="#edb9c0" fill-opacity="1">
        <g transform="translate(189.430592, 92.709895)">
            <g>
                <path d="M 8.125 0 L 8.125 -14.921875 L 13.34375 -14.921875 L 23.953125 0 L 28.828125 0 L 17.59375 -15.484375 C 20.609375 -16.25 24.484375 -18.796875 24.484375 -24 C 24.484375 -28.875 21.703125 -33.5625 12.578125 -33.5625 C 11.625 -33.5625 5.921875 -33.515625 4.0625 -33.46875 L 4.0625 0 Z M 8.125 -32.65625 C 9.421875 -32.796875 9.65625 -32.84375 11.046875 -32.84375 C 16.6875 -32.84375 20.171875 -29.359375 20.171875 -23.859375 C 20.171875 -18.359375 16.546875 -15.640625 11.046875 -15.640625 L 8.125 -15.640625 Z M 8.125 -32.65625 "/>
            </g>
        </g>
    </g>
    <g fill="#edb9c0" fill-opacity="1">
        <g transform="translate(216.967953, 92.709895)">
            <g/>
        </g>
    </g>
    <g fill="#edb9c0" fill-opacity="1">
        <g transform="translate(226.194889, 92.709895)">
            <g>
                <path d="M 24.34375 -33.46875 C 23.71875 -31.359375 20.9375 -26.0625 18.984375 -22.90625 L 15.203125 -16.734375 L 5.21875 -33.46875 L 0.234375 -33.46875 L 11.625 -14.828125 L 11.625 0 L 15.6875 0 L 15.6875 -16.15625 L 19.75 -22.703125 C 22.375 -26.96875 27.109375 -33.46875 27.109375 -33.46875 Z M 24.34375 -33.46875 "/>
            </g>
        </g>
    </g>
    <g fill="#edb9c0" fill-opacity="1">
        <g transform="translate(252.011161, 92.709895)">
            <g>
                <path d="M 2.390625 -16.734375 C 2.390625 -6.546875 9.75 0.484375 19.9375 0.484375 C 29.640625 0.484375 37.484375 -6.796875 37.484375 -16.59375 C 37.484375 -26.921875 30.125 -33.953125 19.9375 -33.953125 C 9.515625 -33.953125 2.390625 -26.4375 2.390625 -16.734375 Z M 6.6875 -16.59375 C 6.6875 -25.8125 11.09375 -33.234375 19.3125 -33.234375 C 27.4375 -33.234375 33.1875 -26.25 33.1875 -16.734375 C 33.1875 -8.03125 29.125 -0.234375 20.515625 -0.234375 C 12.390625 -0.234375 6.6875 -7.984375 6.6875 -16.59375 Z M 6.6875 -16.59375 "/>
            </g>
        </g>
    </g>
    <g fill="#edb9c0" fill-opacity="1">
        <g transform="translate(290.353111, 92.709895)">
            <g>
                <path d="M 27.78125 -33.46875 C 28.25 -29.9375 28.59375 -24.71875 28.59375 -18.84375 L 28.59375 -13.484375 C 28.59375 -6.078125 25.921875 -1.578125 18.359375 -1.578125 C 10.8125 -1.578125 8.125 -5.875 8.125 -12.765625 L 8.125 -33.46875 L 4.0625 -33.46875 L 4.0625 -12.09375 C 4.0625 -2.71875 9.421875 0.4375 17.171875 0.4375 C 25.34375 0.4375 29.453125 -4.40625 29.453125 -13.25 L 29.453125 -18.890625 C 29.453125 -24.046875 29.984375 -30.84375 30.359375 -33.46875 Z M 27.78125 -33.46875 "/>
            </g>
        </g>
    </g>
    <g fill="#575656" fill-opacity="1">
        <g transform="translate(59.771074, 118.137707)">
            <g>
                <path d="M 0.71875 0.03125 C 0.65625 0.03125 0.601562 0.00390625 0.5625 -0.046875 C 0.53125 -0.0976562 0.515625 -0.160156 0.515625 -0.234375 C 0.523438 -0.347656 0.546875 -0.414062 0.578125 -0.4375 C 0.617188 -0.46875 0.695312 -0.484375 0.8125 -0.484375 C 1.039062 -0.484375 1.210938 -0.523438 1.328125 -0.609375 C 1.441406 -0.691406 1.507812 -0.789062 1.53125 -0.90625 C 1.5625 -1.03125 1.582031 -1.195312 1.59375 -1.40625 L 1.59375 -6.140625 C 1.582031 -6.335938 1.5625 -6.5 1.53125 -6.625 C 1.507812 -6.75 1.441406 -6.851562 1.328125 -6.9375 C 1.210938 -7.019531 1.039062 -7.0625 0.8125 -7.0625 L 0.734375 -7.0625 C 0.660156 -7.0625 0.609375 -7.070312 0.578125 -7.09375 C 0.546875 -7.125 0.523438 -7.195312 0.515625 -7.3125 C 0.515625 -7.382812 0.53125 -7.445312 0.5625 -7.5 C 0.601562 -7.550781 0.65625 -7.578125 0.71875 -7.578125 C 1.238281 -7.554688 1.710938 -7.546875 2.140625 -7.546875 L 4 -7.546875 C 4.769531 -7.546875 5.46875 -7.390625 6.09375 -7.078125 C 6.71875 -6.773438 7.207031 -6.335938 7.5625 -5.765625 C 7.925781 -5.191406 8.109375 -4.515625 8.109375 -3.734375 C 8.109375 -2.921875 7.90625 -2.234375 7.5 -1.671875 C 7.09375 -1.109375 6.554688 -0.6875 5.890625 -0.40625 C 5.234375 -0.132812 4.535156 0 3.796875 0 L 2.140625 0 C 1.710938 0 1.238281 0.0078125 0.71875 0.03125 Z M 3.96875 -0.4375 C 4.894531 -0.4375 5.578125 -0.722656 6.015625 -1.296875 C 6.453125 -1.878906 6.671875 -2.691406 6.671875 -3.734375 C 6.671875 -4.378906 6.550781 -4.957031 6.3125 -5.46875 C 6.082031 -5.988281 5.742188 -6.390625 5.296875 -6.671875 C 4.847656 -6.960938 4.316406 -7.109375 3.703125 -7.109375 L 2.765625 -7.09375 L 2.765625 -1.25 C 2.765625 -0.9375 2.859375 -0.722656 3.046875 -0.609375 C 3.234375 -0.492188 3.539062 -0.4375 3.96875 -0.4375 Z M 3.96875 -0.4375 "/>
            </g>
        </g>
    </g>
    <g fill="#575656" fill-opacity="1">
        <g transform="translate(69.105644, 118.137707)">
            <g>
                <path d="M 4.375 0.234375 C 3.613281 0.234375 2.941406 0.0546875 2.359375 -0.296875 C 1.785156 -0.660156 1.34375 -1.140625 1.03125 -1.734375 C 0.71875 -2.335938 0.5625 -2.984375 0.5625 -3.671875 C 0.5625 -4.503906 0.75 -5.234375 1.125 -5.859375 C 1.507812 -6.484375 1.992188 -6.957031 2.578125 -7.28125 C 3.171875 -7.613281 3.769531 -7.78125 4.375 -7.78125 C 5.132812 -7.78125 5.804688 -7.597656 6.390625 -7.234375 C 6.984375 -6.867188 7.4375 -6.390625 7.75 -5.796875 C 8.0625 -5.203125 8.21875 -4.566406 8.21875 -3.890625 C 8.21875 -3.046875 8.023438 -2.3125 7.640625 -1.6875 C 7.265625 -1.0625 6.773438 -0.582031 6.171875 -0.25 C 5.578125 0.0703125 4.976562 0.234375 4.375 0.234375 Z M 4.359375 -0.28125 C 4.898438 -0.28125 5.351562 -0.441406 5.71875 -0.765625 C 6.082031 -1.085938 6.351562 -1.519531 6.53125 -2.0625 C 6.707031 -2.613281 6.796875 -3.222656 6.796875 -3.890625 C 6.796875 -4.503906 6.703125 -5.066406 6.515625 -5.578125 C 6.335938 -6.085938 6.066406 -6.492188 5.703125 -6.796875 C 5.335938 -7.109375 4.890625 -7.265625 4.359375 -7.265625 C 3.566406 -7.265625 2.96875 -6.925781 2.5625 -6.25 C 2.15625 -5.582031 1.953125 -4.734375 1.953125 -3.703125 C 1.953125 -3.078125 2.039062 -2.503906 2.21875 -1.984375 C 2.40625 -1.472656 2.675781 -1.0625 3.03125 -0.75 C 3.394531 -0.4375 3.835938 -0.28125 4.359375 -0.28125 Z M 4.359375 -0.28125 "/>
            </g>
        </g>
    </g>
    <g fill="#575656" fill-opacity="1">
        <g transform="translate(78.523878, 118.137707)">
            <g>
                <path d="M 2.140625 0.03125 C 2.066406 0.03125 2.007812 0.00390625 1.96875 -0.046875 C 1.9375 -0.0976562 1.921875 -0.160156 1.921875 -0.234375 C 1.929688 -0.347656 1.957031 -0.414062 2 -0.4375 C 2.039062 -0.46875 2.113281 -0.484375 2.21875 -0.484375 C 2.445312 -0.484375 2.617188 -0.523438 2.734375 -0.609375 C 2.847656 -0.691406 2.914062 -0.789062 2.9375 -0.90625 C 2.96875 -1.03125 2.988281 -1.195312 3 -1.40625 L 3 -7.09375 L 2.171875 -7.09375 C 1.898438 -7.09375 1.691406 -7.035156 1.546875 -6.921875 C 1.398438 -6.816406 1.285156 -6.65625 1.203125 -6.4375 C 1.128906 -6.226562 1.066406 -5.929688 1.015625 -5.546875 C 1.003906 -5.484375 0.953125 -5.429688 0.859375 -5.390625 C 0.773438 -5.347656 0.6875 -5.328125 0.59375 -5.328125 C 0.519531 -5.328125 0.453125 -5.347656 0.390625 -5.390625 C 0.335938 -5.441406 0.3125 -5.5 0.3125 -5.5625 L 0.34375 -7.25 C 0.34375 -7.445312 0.453125 -7.546875 0.671875 -7.546875 L 6.515625 -7.546875 C 6.722656 -7.546875 6.828125 -7.445312 6.828125 -7.25 L 6.875 -5.5625 C 6.875 -5.5 6.84375 -5.441406 6.78125 -5.390625 C 6.71875 -5.347656 6.648438 -5.328125 6.578125 -5.328125 C 6.484375 -5.328125 6.394531 -5.347656 6.3125 -5.390625 C 6.226562 -5.429688 6.179688 -5.484375 6.171875 -5.546875 C 6.109375 -5.941406 6.039062 -6.242188 5.96875 -6.453125 C 5.894531 -6.660156 5.78125 -6.816406 5.625 -6.921875 C 5.476562 -7.035156 5.269531 -7.09375 5 -7.09375 L 4.1875 -7.09375 L 4.1875 -1.40625 C 4.195312 -1.195312 4.210938 -1.03125 4.234375 -0.90625 C 4.265625 -0.789062 4.332031 -0.691406 4.4375 -0.609375 C 4.550781 -0.523438 4.722656 -0.484375 4.953125 -0.484375 L 5.03125 -0.484375 C 5.101562 -0.484375 5.15625 -0.46875 5.1875 -0.4375 C 5.226562 -0.40625 5.253906 -0.335938 5.265625 -0.234375 C 5.265625 -0.160156 5.242188 -0.0976562 5.203125 -0.046875 C 5.171875 0.00390625 5.117188 0.03125 5.046875 0.03125 C 4.535156 0.0078125 4.066406 0 3.640625 0 C 3.160156 0 2.660156 0.0078125 2.140625 0.03125 Z M 2.140625 0.03125 "/>
            </g>
        </g>
    </g>
    <g fill="#575656" fill-opacity="1">
        <g transform="translate(86.32859, 118.137707)">
            <g>
                <path d="M 0.71875 0.03125 C 0.65625 0.03125 0.601562 0.00390625 0.5625 -0.046875 C 0.519531 -0.0976562 0.5 -0.160156 0.5 -0.234375 C 0.507812 -0.347656 0.535156 -0.414062 0.578125 -0.4375 C 0.617188 -0.46875 0.695312 -0.484375 0.8125 -0.484375 C 1.039062 -0.484375 1.210938 -0.523438 1.328125 -0.609375 C 1.441406 -0.691406 1.507812 -0.789062 1.53125 -0.90625 C 1.5625 -1.03125 1.582031 -1.195312 1.59375 -1.40625 L 1.59375 -6.140625 C 1.582031 -6.335938 1.5625 -6.5 1.53125 -6.625 C 1.507812 -6.75 1.441406 -6.851562 1.328125 -6.9375 C 1.210938 -7.019531 1.039062 -7.0625 0.8125 -7.0625 L 0.734375 -7.0625 C 0.660156 -7.0625 0.601562 -7.070312 0.5625 -7.09375 C 0.53125 -7.125 0.507812 -7.195312 0.5 -7.3125 C 0.5 -7.382812 0.519531 -7.445312 0.5625 -7.5 C 0.601562 -7.550781 0.65625 -7.578125 0.71875 -7.578125 C 1.238281 -7.554688 1.71875 -7.546875 2.15625 -7.546875 L 3.9375 -7.546875 C 4.632812 -7.546875 5.304688 -7.398438 5.953125 -7.109375 C 6.609375 -6.828125 6.9375 -6.253906 6.9375 -5.390625 C 6.9375 -4.910156 6.789062 -4.484375 6.5 -4.109375 C 6.21875 -3.734375 5.847656 -3.441406 5.390625 -3.234375 C 4.929688 -3.023438 4.453125 -2.921875 3.953125 -2.921875 C 3.503906 -2.921875 3.109375 -2.988281 2.765625 -3.125 L 2.765625 -1.40625 C 2.765625 -1.195312 2.78125 -1.03125 2.8125 -0.90625 C 2.84375 -0.789062 2.910156 -0.691406 3.015625 -0.609375 C 3.128906 -0.523438 3.300781 -0.484375 3.53125 -0.484375 L 3.609375 -0.484375 C 3.691406 -0.484375 3.75 -0.46875 3.78125 -0.4375 C 3.820312 -0.40625 3.84375 -0.335938 3.84375 -0.234375 C 3.84375 -0.160156 3.820312 -0.0976562 3.78125 -0.046875 C 3.75 0.00390625 3.703125 0.03125 3.640625 0.03125 C 3.128906 0.0078125 2.628906 0 2.140625 0 C 1.710938 0 1.238281 0.0078125 0.71875 0.03125 Z M 3.609375 -3.46875 C 3.898438 -3.46875 4.195312 -3.523438 4.5 -3.640625 C 4.800781 -3.753906 5.0625 -3.953125 5.28125 -4.234375 C 5.5 -4.515625 5.609375 -4.890625 5.609375 -5.359375 C 5.609375 -6.054688 5.382812 -6.519531 4.9375 -6.75 C 4.488281 -6.976562 4.015625 -7.09375 3.515625 -7.09375 C 3.304688 -7.09375 3.148438 -7.070312 3.046875 -7.03125 C 2.941406 -6.988281 2.867188 -6.90625 2.828125 -6.78125 C 2.785156 -6.65625 2.765625 -6.457031 2.765625 -6.1875 L 2.765625 -3.59375 C 2.953125 -3.507812 3.234375 -3.46875 3.609375 -3.46875 Z M 3.609375 -3.46875 "/>
            </g>
        </g>
    </g>
    <g fill="#575656" fill-opacity="1">
        <g transform="translate(94.181106, 118.137707)">
            <g>
                <path d="M 0.078125 0.03125 C 0.00390625 0.03125 -0.046875 0.00390625 -0.078125 -0.046875 C -0.117188 -0.0976562 -0.140625 -0.160156 -0.140625 -0.234375 C -0.128906 -0.347656 -0.101562 -0.414062 -0.0625 -0.4375 C -0.03125 -0.46875 0.0078125 -0.484375 0.0625 -0.484375 C 0.125 -0.484375 0.160156 -0.484375 0.171875 -0.484375 C 0.410156 -0.484375 0.585938 -0.539062 0.703125 -0.65625 C 0.816406 -0.78125 0.90625 -0.921875 0.96875 -1.078125 C 1.039062 -1.234375 1.085938 -1.34375 1.109375 -1.40625 L 3.203125 -6.34375 C 3.253906 -6.46875 3.28125 -6.566406 3.28125 -6.640625 C 3.28125 -6.773438 3.222656 -6.875 3.109375 -6.9375 C 2.992188 -7.007812 2.835938 -7.0625 2.640625 -7.09375 C 2.503906 -7.125 2.421875 -7.148438 2.390625 -7.171875 C 2.359375 -7.191406 2.34375 -7.257812 2.34375 -7.375 C 2.34375 -7.46875 2.367188 -7.53125 2.421875 -7.5625 C 2.472656 -7.59375 2.554688 -7.609375 2.671875 -7.609375 C 3.066406 -7.609375 3.378906 -7.578125 3.609375 -7.515625 C 3.847656 -7.460938 4.054688 -7.34375 4.234375 -7.15625 C 4.410156 -6.976562 4.570312 -6.707031 4.71875 -6.34375 L 6.734375 -1.40625 C 6.847656 -1.09375 6.960938 -0.859375 7.078125 -0.703125 C 7.191406 -0.554688 7.359375 -0.484375 7.578125 -0.484375 L 7.65625 -0.484375 C 7.726562 -0.484375 7.78125 -0.46875 7.8125 -0.4375 C 7.84375 -0.40625 7.863281 -0.335938 7.875 -0.234375 C 7.875 -0.160156 7.851562 -0.0976562 7.8125 -0.046875 C 7.78125 0.00390625 7.726562 0.03125 7.65625 0.03125 C 7.144531 0.0078125 6.707031 0 6.34375 0 C 5.863281 0 5.367188 0.0078125 4.859375 0.03125 C 4.785156 0.03125 4.734375 0.00390625 4.703125 -0.046875 C 4.671875 -0.0976562 4.65625 -0.160156 4.65625 -0.234375 C 4.65625 -0.335938 4.671875 -0.40625 4.703125 -0.4375 C 4.734375 -0.46875 4.789062 -0.484375 4.875 -0.484375 C 5.144531 -0.484375 5.335938 -0.507812 5.453125 -0.5625 C 5.566406 -0.613281 5.625 -0.707031 5.625 -0.84375 C 5.625 -0.9375 5.570312 -1.125 5.46875 -1.40625 L 5.0625 -2.390625 L 2.109375 -2.390625 C 1.910156 -1.898438 1.796875 -1.613281 1.765625 -1.53125 C 1.742188 -1.445312 1.734375 -1.40625 1.734375 -1.40625 C 1.640625 -1.09375 1.59375 -0.894531 1.59375 -0.8125 C 1.59375 -0.675781 1.648438 -0.585938 1.765625 -0.546875 C 1.890625 -0.503906 2.117188 -0.484375 2.453125 -0.484375 L 2.515625 -0.484375 C 2.597656 -0.484375 2.65625 -0.46875 2.6875 -0.4375 C 2.71875 -0.40625 2.738281 -0.335938 2.75 -0.234375 C 2.75 -0.160156 2.726562 -0.0976562 2.6875 -0.046875 C 2.65625 0.00390625 2.601562 0.03125 2.53125 0.03125 C 2.019531 0.0078125 1.585938 0 1.234375 0 C 0.972656 0 0.585938 0.0078125 0.078125 0.03125 Z M 2.34375 -2.90625 L 4.859375 -2.90625 L 3.640625 -5.96875 L 3.609375 -5.96875 Z M 2.34375 -2.90625 "/>
            </g>
        </g>
    </g>
    <g fill="#575656" fill-opacity="1">
        <g transform="translate(102.619279, 118.137707)">
            <g>
                <path d="M 0.71875 0.03125 C 0.644531 0.03125 0.585938 0.00390625 0.546875 -0.046875 C 0.515625 -0.0976562 0.5 -0.160156 0.5 -0.234375 C 0.507812 -0.347656 0.535156 -0.414062 0.578125 -0.4375 C 0.617188 -0.46875 0.691406 -0.484375 0.796875 -0.484375 C 1.023438 -0.484375 1.195312 -0.523438 1.3125 -0.609375 C 1.425781 -0.691406 1.5 -0.789062 1.53125 -0.90625 C 1.5625 -1.03125 1.582031 -1.195312 1.59375 -1.40625 L 1.59375 -6.140625 C 1.582031 -6.347656 1.5625 -6.507812 1.53125 -6.625 C 1.5 -6.75 1.425781 -6.851562 1.3125 -6.9375 C 1.195312 -7.019531 1.023438 -7.0625 0.796875 -7.0625 L 0.734375 -7.0625 C 0.660156 -7.0625 0.601562 -7.070312 0.5625 -7.09375 C 0.53125 -7.125 0.507812 -7.195312 0.5 -7.3125 C 0.5 -7.382812 0.515625 -7.445312 0.546875 -7.5 C 0.585938 -7.550781 0.644531 -7.578125 0.71875 -7.578125 C 1.238281 -7.554688 1.710938 -7.546875 2.140625 -7.546875 C 2.617188 -7.546875 3.117188 -7.554688 3.640625 -7.578125 C 3.703125 -7.578125 3.75 -7.550781 3.78125 -7.5 C 3.820312 -7.445312 3.84375 -7.382812 3.84375 -7.3125 C 3.84375 -7.195312 3.816406 -7.125 3.765625 -7.09375 C 3.722656 -7.070312 3.644531 -7.0625 3.53125 -7.0625 C 3.300781 -7.0625 3.128906 -7.019531 3.015625 -6.9375 C 2.910156 -6.851562 2.84375 -6.75 2.8125 -6.625 C 2.78125 -6.5 2.765625 -6.335938 2.765625 -6.140625 L 2.765625 -1.40625 C 2.765625 -1.195312 2.78125 -1.03125 2.8125 -0.90625 C 2.84375 -0.789062 2.910156 -0.691406 3.015625 -0.609375 C 3.128906 -0.523438 3.300781 -0.484375 3.53125 -0.484375 L 3.609375 -0.484375 C 3.691406 -0.484375 3.75 -0.46875 3.78125 -0.4375 C 3.820312 -0.40625 3.84375 -0.335938 3.84375 -0.234375 C 3.84375 -0.160156 3.820312 -0.0976562 3.78125 -0.046875 C 3.75 0.00390625 3.703125 0.03125 3.640625 0.03125 C 3.128906 0.0078125 2.632812 0 2.15625 0 C 1.71875 0 1.238281 0.0078125 0.71875 0.03125 Z M 0.71875 0.03125 "/>
            </g>
        </g>
    </g>
    <g fill="#575656" fill-opacity="1">
        <g transform="translate(107.603306, 118.137707)">
            <g>
                <path d="M 0.734375 0.03125 C 0.671875 0.03125 0.617188 0.00390625 0.578125 -0.046875 C 0.546875 -0.0976562 0.53125 -0.160156 0.53125 -0.234375 C 0.53125 -0.347656 0.550781 -0.414062 0.59375 -0.4375 C 0.632812 -0.46875 0.710938 -0.484375 0.828125 -0.484375 C 1.054688 -0.484375 1.222656 -0.523438 1.328125 -0.609375 C 1.441406 -0.691406 1.507812 -0.789062 1.53125 -0.90625 C 1.550781 -1.019531 1.566406 -1.1875 1.578125 -1.40625 L 1.609375 -6.140625 C 1.609375 -6.378906 1.582031 -6.5625 1.53125 -6.6875 C 1.476562 -6.8125 1.394531 -6.898438 1.28125 -6.953125 C 1.164062 -7.015625 1.003906 -7.0625 0.796875 -7.09375 C 0.660156 -7.125 0.578125 -7.148438 0.546875 -7.171875 C 0.515625 -7.191406 0.5 -7.257812 0.5 -7.375 C 0.5 -7.46875 0.523438 -7.53125 0.578125 -7.5625 C 0.628906 -7.59375 0.710938 -7.609375 0.828125 -7.609375 C 1.316406 -7.609375 1.703125 -7.570312 1.984375 -7.5 C 2.273438 -7.4375 2.53125 -7.316406 2.75 -7.140625 C 2.96875 -6.972656 3.210938 -6.707031 3.484375 -6.34375 L 6.75 -2.046875 L 6.796875 -2.046875 L 6.765625 -6.140625 C 6.753906 -6.359375 6.738281 -6.523438 6.71875 -6.640625 C 6.695312 -6.753906 6.628906 -6.851562 6.515625 -6.9375 C 6.410156 -7.019531 6.242188 -7.0625 6.015625 -7.0625 L 5.9375 -7.0625 C 5.863281 -7.0625 5.804688 -7.070312 5.765625 -7.09375 C 5.734375 -7.125 5.710938 -7.195312 5.703125 -7.3125 C 5.703125 -7.382812 5.722656 -7.445312 5.765625 -7.5 C 5.804688 -7.550781 5.859375 -7.578125 5.921875 -7.578125 C 6.429688 -7.554688 6.8125 -7.546875 7.0625 -7.546875 C 7.21875 -7.546875 7.507812 -7.550781 7.9375 -7.5625 L 8.1875 -7.578125 C 8.257812 -7.578125 8.3125 -7.550781 8.34375 -7.5 C 8.382812 -7.445312 8.40625 -7.382812 8.40625 -7.3125 C 8.394531 -7.195312 8.367188 -7.125 8.328125 -7.09375 C 8.285156 -7.070312 8.210938 -7.0625 8.109375 -7.0625 C 7.867188 -7.0625 7.695312 -7.019531 7.59375 -6.9375 C 7.488281 -6.851562 7.421875 -6.753906 7.390625 -6.640625 C 7.367188 -6.523438 7.351562 -6.359375 7.34375 -6.140625 L 7.328125 -0.125 C 7.316406 -0.0195312 7.21875 0.03125 7.03125 0.03125 C 6.875 0.03125 6.757812 -0.0195312 6.6875 -0.125 L 2.171875 -6.140625 L 2.140625 -6.140625 L 2.15625 -1.40625 C 2.164062 -1.1875 2.179688 -1.019531 2.203125 -0.90625 C 2.234375 -0.789062 2.300781 -0.691406 2.40625 -0.609375 C 2.507812 -0.523438 2.679688 -0.484375 2.921875 -0.484375 L 2.984375 -0.484375 C 3.066406 -0.484375 3.125 -0.46875 3.15625 -0.4375 C 3.195312 -0.40625 3.222656 -0.335938 3.234375 -0.234375 C 3.234375 -0.160156 3.210938 -0.0976562 3.171875 -0.046875 C 3.140625 0.00390625 3.085938 0.03125 3.015625 0.03125 C 2.503906 0.0078125 2.117188 0 1.859375 0 C 1.691406 0 1.410156 0.0078125 1.015625 0.03125 Z M 0.734375 0.03125 "/>
            </g>
        </g>
    </g>
    <g fill="#575656" fill-opacity="1">
        <g transform="translate(117.045442, 118.137707)">
            <g>
                <path d="M 2.140625 0.03125 C 2.066406 0.03125 2.007812 0.00390625 1.96875 -0.046875 C 1.9375 -0.0976562 1.921875 -0.160156 1.921875 -0.234375 C 1.929688 -0.347656 1.957031 -0.414062 2 -0.4375 C 2.039062 -0.46875 2.113281 -0.484375 2.21875 -0.484375 C 2.445312 -0.484375 2.617188 -0.523438 2.734375 -0.609375 C 2.847656 -0.691406 2.914062 -0.789062 2.9375 -0.90625 C 2.96875 -1.03125 2.988281 -1.195312 3 -1.40625 L 3 -7.09375 L 2.171875 -7.09375 C 1.898438 -7.09375 1.691406 -7.035156 1.546875 -6.921875 C 1.398438 -6.816406 1.285156 -6.65625 1.203125 -6.4375 C 1.128906 -6.226562 1.066406 -5.929688 1.015625 -5.546875 C 1.003906 -5.484375 0.953125 -5.429688 0.859375 -5.390625 C 0.773438 -5.347656 0.6875 -5.328125 0.59375 -5.328125 C 0.519531 -5.328125 0.453125 -5.347656 0.390625 -5.390625 C 0.335938 -5.441406 0.3125 -5.5 0.3125 -5.5625 L 0.34375 -7.25 C 0.34375 -7.445312 0.453125 -7.546875 0.671875 -7.546875 L 6.515625 -7.546875 C 6.722656 -7.546875 6.828125 -7.445312 6.828125 -7.25 L 6.875 -5.5625 C 6.875 -5.5 6.84375 -5.441406 6.78125 -5.390625 C 6.71875 -5.347656 6.648438 -5.328125 6.578125 -5.328125 C 6.484375 -5.328125 6.394531 -5.347656 6.3125 -5.390625 C 6.226562 -5.429688 6.179688 -5.484375 6.171875 -5.546875 C 6.109375 -5.941406 6.039062 -6.242188 5.96875 -6.453125 C 5.894531 -6.660156 5.78125 -6.816406 5.625 -6.921875 C 5.476562 -7.035156 5.269531 -7.09375 5 -7.09375 L 4.1875 -7.09375 L 4.1875 -1.40625 C 4.195312 -1.195312 4.210938 -1.03125 4.234375 -0.90625 C 4.265625 -0.789062 4.332031 -0.691406 4.4375 -0.609375 C 4.550781 -0.523438 4.722656 -0.484375 4.953125 -0.484375 L 5.03125 -0.484375 C 5.101562 -0.484375 5.15625 -0.46875 5.1875 -0.4375 C 5.226562 -0.40625 5.253906 -0.335938 5.265625 -0.234375 C 5.265625 -0.160156 5.242188 -0.0976562 5.203125 -0.046875 C 5.171875 0.00390625 5.117188 0.03125 5.046875 0.03125 C 4.535156 0.0078125 4.066406 0 3.640625 0 C 3.160156 0 2.660156 0.0078125 2.140625 0.03125 Z M 2.140625 0.03125 "/>
            </g>
        </g>
    </g>
    <g fill="#575656" fill-opacity="1">
        <g transform="translate(124.850154, 118.137707)">
            <g>
                <path d="M 0.71875 0.03125 C 0.644531 0.03125 0.585938 0.00390625 0.546875 -0.046875 C 0.515625 -0.0976562 0.5 -0.160156 0.5 -0.234375 C 0.507812 -0.347656 0.535156 -0.414062 0.578125 -0.4375 C 0.617188 -0.46875 0.691406 -0.484375 0.796875 -0.484375 C 1.023438 -0.484375 1.195312 -0.523438 1.3125 -0.609375 C 1.425781 -0.691406 1.5 -0.789062 1.53125 -0.90625 C 1.5625 -1.03125 1.582031 -1.195312 1.59375 -1.40625 L 1.59375 -6.140625 C 1.582031 -6.347656 1.5625 -6.507812 1.53125 -6.625 C 1.5 -6.75 1.425781 -6.851562 1.3125 -6.9375 C 1.195312 -7.019531 1.023438 -7.0625 0.796875 -7.0625 L 0.734375 -7.0625 C 0.660156 -7.0625 0.601562 -7.070312 0.5625 -7.09375 C 0.53125 -7.125 0.507812 -7.195312 0.5 -7.3125 C 0.5 -7.382812 0.515625 -7.445312 0.546875 -7.5 C 0.585938 -7.550781 0.644531 -7.578125 0.71875 -7.578125 C 1.238281 -7.554688 1.710938 -7.546875 2.140625 -7.546875 C 2.617188 -7.546875 3.117188 -7.554688 3.640625 -7.578125 C 3.703125 -7.578125 3.75 -7.550781 3.78125 -7.5 C 3.820312 -7.445312 3.84375 -7.382812 3.84375 -7.3125 C 3.84375 -7.195312 3.816406 -7.125 3.765625 -7.09375 C 3.722656 -7.070312 3.644531 -7.0625 3.53125 -7.0625 C 3.300781 -7.0625 3.128906 -7.019531 3.015625 -6.9375 C 2.910156 -6.851562 2.84375 -6.75 2.8125 -6.625 C 2.78125 -6.5 2.765625 -6.335938 2.765625 -6.140625 L 2.765625 -1.40625 C 2.765625 -1.195312 2.78125 -1.03125 2.8125 -0.90625 C 2.84375 -0.789062 2.910156 -0.691406 3.015625 -0.609375 C 3.128906 -0.523438 3.300781 -0.484375 3.53125 -0.484375 L 3.609375 -0.484375 C 3.691406 -0.484375 3.75 -0.46875 3.78125 -0.4375 C 3.820312 -0.40625 3.84375 -0.335938 3.84375 -0.234375 C 3.84375 -0.160156 3.820312 -0.0976562 3.78125 -0.046875 C 3.75 0.00390625 3.703125 0.03125 3.640625 0.03125 C 3.128906 0.0078125 2.632812 0 2.15625 0 C 1.71875 0 1.238281 0.0078125 0.71875 0.03125 Z M 0.71875 0.03125 "/>
            </g>
        </g>
    </g>
    <g fill="#575656" fill-opacity="1">
        <g transform="translate(129.834181, 118.137707)">
            <g>
                <path d="M 0.734375 0.03125 C 0.671875 0.03125 0.617188 0.00390625 0.578125 -0.046875 C 0.546875 -0.0976562 0.53125 -0.160156 0.53125 -0.234375 C 0.53125 -0.347656 0.550781 -0.414062 0.59375 -0.4375 C 0.632812 -0.46875 0.710938 -0.484375 0.828125 -0.484375 C 1.054688 -0.484375 1.222656 -0.523438 1.328125 -0.609375 C 1.441406 -0.691406 1.507812 -0.789062 1.53125 -0.90625 C 1.550781 -1.019531 1.566406 -1.1875 1.578125 -1.40625 L 1.609375 -6.140625 C 1.609375 -6.378906 1.582031 -6.5625 1.53125 -6.6875 C 1.476562 -6.8125 1.394531 -6.898438 1.28125 -6.953125 C 1.164062 -7.015625 1.003906 -7.0625 0.796875 -7.09375 C 0.660156 -7.125 0.578125 -7.148438 0.546875 -7.171875 C 0.515625 -7.191406 0.5 -7.257812 0.5 -7.375 C 0.5 -7.46875 0.523438 -7.53125 0.578125 -7.5625 C 0.628906 -7.59375 0.710938 -7.609375 0.828125 -7.609375 C 1.316406 -7.609375 1.703125 -7.570312 1.984375 -7.5 C 2.273438 -7.4375 2.53125 -7.316406 2.75 -7.140625 C 2.96875 -6.972656 3.210938 -6.707031 3.484375 -6.34375 L 6.75 -2.046875 L 6.796875 -2.046875 L 6.765625 -6.140625 C 6.753906 -6.359375 6.738281 -6.523438 6.71875 -6.640625 C 6.695312 -6.753906 6.628906 -6.851562 6.515625 -6.9375 C 6.410156 -7.019531 6.242188 -7.0625 6.015625 -7.0625 L 5.9375 -7.0625 C 5.863281 -7.0625 5.804688 -7.070312 5.765625 -7.09375 C 5.734375 -7.125 5.710938 -7.195312 5.703125 -7.3125 C 5.703125 -7.382812 5.722656 -7.445312 5.765625 -7.5 C 5.804688 -7.550781 5.859375 -7.578125 5.921875 -7.578125 C 6.429688 -7.554688 6.8125 -7.546875 7.0625 -7.546875 C 7.21875 -7.546875 7.507812 -7.550781 7.9375 -7.5625 L 8.1875 -7.578125 C 8.257812 -7.578125 8.3125 -7.550781 8.34375 -7.5 C 8.382812 -7.445312 8.40625 -7.382812 8.40625 -7.3125 C 8.394531 -7.195312 8.367188 -7.125 8.328125 -7.09375 C 8.285156 -7.070312 8.210938 -7.0625 8.109375 -7.0625 C 7.867188 -7.0625 7.695312 -7.019531 7.59375 -6.9375 C 7.488281 -6.851562 7.421875 -6.753906 7.390625 -6.640625 C 7.367188 -6.523438 7.351562 -6.359375 7.34375 -6.140625 L 7.328125 -0.125 C 7.316406 -0.0195312 7.21875 0.03125 7.03125 0.03125 C 6.875 0.03125 6.757812 -0.0195312 6.6875 -0.125 L 2.171875 -6.140625 L 2.140625 -6.140625 L 2.15625 -1.40625 C 2.164062 -1.1875 2.179688 -1.019531 2.203125 -0.90625 C 2.234375 -0.789062 2.300781 -0.691406 2.40625 -0.609375 C 2.507812 -0.523438 2.679688 -0.484375 2.921875 -0.484375 L 2.984375 -0.484375 C 3.066406 -0.484375 3.125 -0.46875 3.15625 -0.4375 C 3.195312 -0.40625 3.222656 -0.335938 3.234375 -0.234375 C 3.234375 -0.160156 3.210938 -0.0976562 3.171875 -0.046875 C 3.140625 0.00390625 3.085938 0.03125 3.015625 0.03125 C 2.503906 0.0078125 2.117188 0 1.859375 0 C 1.691406 0 1.410156 0.0078125 1.015625 0.03125 Z M 0.734375 0.03125 "/>
            </g>
        </g>
    </g>
    <g fill="#575656" fill-opacity="1">
        <g transform="translate(139.276318, 118.137707)">
            <g>
                <path d="M 4.296875 0.234375 C 3.597656 0.234375 2.96875 0.0859375 2.40625 -0.203125 C 1.84375 -0.492188 1.394531 -0.9375 1.0625 -1.53125 C 0.738281 -2.125 0.578125 -2.851562 0.578125 -3.71875 C 0.578125 -4.519531 0.753906 -5.226562 1.109375 -5.84375 C 1.472656 -6.457031 1.96875 -6.929688 2.59375 -7.265625 C 3.21875 -7.609375 3.9375 -7.78125 4.75 -7.78125 C 5.15625 -7.78125 5.550781 -7.71875 5.9375 -7.59375 C 6.332031 -7.476562 6.65625 -7.289062 6.90625 -7.03125 C 7.164062 -6.78125 7.296875 -6.46875 7.296875 -6.09375 C 7.296875 -5.738281 7.191406 -5.4375 6.984375 -5.1875 C 6.773438 -4.9375 6.5 -4.8125 6.15625 -4.8125 C 5.988281 -4.8125 5.828125 -4.847656 5.671875 -4.921875 C 5.515625 -5.003906 5.429688 -5.109375 5.421875 -5.234375 C 5.421875 -5.242188 5.472656 -5.285156 5.578125 -5.359375 C 5.691406 -5.441406 5.796875 -5.550781 5.890625 -5.6875 C 5.984375 -5.820312 6.03125 -5.988281 6.03125 -6.1875 C 6.03125 -6.519531 5.894531 -6.785156 5.625 -6.984375 C 5.363281 -7.191406 5.023438 -7.296875 4.609375 -7.296875 C 4.117188 -7.296875 3.671875 -7.160156 3.265625 -6.890625 C 2.867188 -6.617188 2.554688 -6.21875 2.328125 -5.6875 C 2.097656 -5.15625 1.984375 -4.523438 1.984375 -3.796875 C 1.984375 -3.078125 2.097656 -2.457031 2.328125 -1.9375 C 2.554688 -1.425781 2.875 -1.03125 3.28125 -0.75 C 3.6875 -0.476562 4.160156 -0.34375 4.703125 -0.34375 C 4.960938 -0.34375 5.1875 -0.359375 5.375 -0.390625 C 5.570312 -0.421875 5.78125 -0.46875 6 -0.53125 L 6 -1.75 C 6 -2.03125 5.988281 -2.226562 5.96875 -2.34375 C 5.945312 -2.457031 5.882812 -2.539062 5.78125 -2.59375 C 5.675781 -2.644531 5.492188 -2.671875 5.234375 -2.671875 C 5.148438 -2.671875 5.085938 -2.6875 5.046875 -2.71875 C 5.003906 -2.75 4.976562 -2.816406 4.96875 -2.921875 C 4.96875 -2.992188 4.988281 -3.054688 5.03125 -3.109375 C 5.082031 -3.160156 5.144531 -3.1875 5.21875 -3.1875 C 5.71875 -3.164062 6.15625 -3.15625 6.53125 -3.15625 C 6.894531 -3.15625 7.328125 -3.164062 7.828125 -3.1875 C 7.898438 -3.1875 7.957031 -3.160156 8 -3.109375 C 8.039062 -3.054688 8.0625 -2.992188 8.0625 -2.921875 C 8.050781 -2.816406 8.023438 -2.75 7.984375 -2.71875 C 7.941406 -2.6875 7.878906 -2.671875 7.796875 -2.671875 C 7.554688 -2.671875 7.382812 -2.640625 7.28125 -2.578125 C 7.175781 -2.515625 7.109375 -2.425781 7.078125 -2.3125 C 7.054688 -2.195312 7.046875 -2.007812 7.046875 -1.75 L 7.046875 -0.34375 C 6.578125 -0.125 6.144531 0.0234375 5.75 0.109375 C 5.363281 0.191406 4.878906 0.234375 4.296875 0.234375 Z M 4.296875 0.234375 "/>
            </g>
        </g>
    </g>
    <g fill="#575656" fill-opacity="1">
        <g transform="translate(148.180613, 118.137707)">
            <g/>
        </g>
    </g>
    <g fill="#575656" fill-opacity="1">
        <g transform="translate(151.479411, 118.137707)">
            <g>
                <path d="M 4.65625 0.234375 C 3.976562 0.234375 3.351562 0.117188 2.78125 -0.109375 C 2.21875 -0.335938 1.757812 -0.6875 1.40625 -1.15625 C 1.0625 -1.632812 0.890625 -2.226562 0.890625 -2.9375 C 0.890625 -3.53125 1.054688 -4.039062 1.390625 -4.46875 C 1.734375 -4.90625 2.222656 -5.175781 2.859375 -5.28125 L 2.859375 -5.3125 C 2.359375 -5.6875 2.109375 -6.15625 2.109375 -6.71875 C 2.109375 -7.238281 2.296875 -7.660156 2.671875 -7.984375 C 3.054688 -8.304688 3.582031 -8.46875 4.25 -8.46875 C 4.726562 -8.46875 5.128906 -8.359375 5.453125 -8.140625 C 5.785156 -7.929688 5.953125 -7.625 5.953125 -7.21875 C 5.953125 -6.96875 5.878906 -6.75 5.734375 -6.5625 C 5.585938 -6.375 5.390625 -6.28125 5.140625 -6.28125 C 4.984375 -6.28125 4.851562 -6.320312 4.75 -6.40625 C 4.644531 -6.488281 4.59375 -6.554688 4.59375 -6.609375 C 4.59375 -6.617188 4.628906 -6.65625 4.703125 -6.71875 C 4.773438 -6.78125 4.835938 -6.859375 4.890625 -6.953125 C 4.953125 -7.046875 4.984375 -7.148438 4.984375 -7.265625 C 4.984375 -7.492188 4.898438 -7.675781 4.734375 -7.8125 C 4.578125 -7.957031 4.375 -8.03125 4.125 -8.03125 C 3.738281 -8.03125 3.441406 -7.914062 3.234375 -7.6875 C 3.023438 -7.457031 2.921875 -7.171875 2.921875 -6.828125 C 2.921875 -6.242188 3.160156 -5.820312 3.640625 -5.5625 L 4.046875 -5.5625 C 4.171875 -5.5625 4.253906 -5.546875 4.296875 -5.515625 C 4.335938 -5.484375 4.363281 -5.398438 4.375 -5.265625 C 4.375 -5.191406 4.351562 -5.125 4.3125 -5.0625 C 4.269531 -5.007812 4.210938 -4.984375 4.140625 -4.984375 L 3.734375 -4.984375 C 3.210938 -4.929688 2.816406 -4.726562 2.546875 -4.375 C 2.285156 -4.019531 2.15625 -3.601562 2.15625 -3.125 C 2.15625 -2.613281 2.273438 -2.164062 2.515625 -1.78125 C 2.753906 -1.40625 3.082031 -1.113281 3.5 -0.90625 C 3.925781 -0.695312 4.410156 -0.59375 4.953125 -0.59375 C 5.535156 -0.59375 6.070312 -0.710938 6.5625 -0.953125 C 7.050781 -1.203125 7.4375 -1.539062 7.71875 -1.96875 C 8.007812 -2.394531 8.15625 -2.875 8.15625 -3.40625 C 8.15625 -3.863281 8.023438 -4.265625 7.765625 -4.609375 C 7.515625 -4.953125 7.164062 -5.125 6.71875 -5.125 C 6.488281 -5.125 6.265625 -5.054688 6.046875 -4.921875 C 5.828125 -4.796875 5.71875 -4.613281 5.71875 -4.375 C 5.71875 -4.25 5.75 -4.140625 5.8125 -4.046875 C 5.882812 -3.953125 5.988281 -3.894531 6.125 -3.875 C 6.332031 -3.851562 6.5 -3.890625 6.625 -3.984375 C 6.75 -4.085938 6.820312 -4.144531 6.84375 -4.15625 C 6.875 -4.144531 6.921875 -4.085938 6.984375 -3.984375 C 7.046875 -3.890625 7.078125 -3.78125 7.078125 -3.65625 C 7.078125 -3.414062 6.992188 -3.226562 6.828125 -3.09375 C 6.671875 -2.957031 6.472656 -2.890625 6.234375 -2.890625 C 5.921875 -2.890625 5.671875 -3.007812 5.484375 -3.25 C 5.304688 -3.5 5.21875 -3.816406 5.21875 -4.203125 C 5.21875 -4.773438 5.367188 -5.210938 5.671875 -5.515625 C 5.972656 -5.816406 6.332031 -6.019531 6.75 -6.125 C 7.164062 -6.226562 7.703125 -6.320312 8.359375 -6.40625 C 8.941406 -6.457031 9.367188 -6.53125 9.640625 -6.625 C 9.816406 -6.6875 9.960938 -6.773438 10.078125 -6.890625 C 10.191406 -7.003906 10.25 -7.132812 10.25 -7.28125 C 10.25 -7.519531 10.101562 -7.660156 9.8125 -7.703125 C 9.601562 -7.722656 9.4375 -7.679688 9.3125 -7.578125 C 9.1875 -7.472656 9.113281 -7.414062 9.09375 -7.40625 C 9.050781 -7.414062 8.992188 -7.476562 8.921875 -7.59375 C 8.859375 -7.71875 8.84375 -7.859375 8.875 -8.015625 C 8.90625 -8.234375 9 -8.394531 9.15625 -8.5 C 9.3125 -8.613281 9.5 -8.671875 9.71875 -8.671875 C 9.894531 -8.671875 10.039062 -8.644531 10.15625 -8.59375 C 10.351562 -8.507812 10.492188 -8.367188 10.578125 -8.171875 C 10.660156 -7.984375 10.703125 -7.773438 10.703125 -7.546875 C 10.703125 -7.109375 10.566406 -6.726562 10.296875 -6.40625 C 10.023438 -6.082031 9.65625 -5.835938 9.1875 -5.671875 C 8.726562 -5.503906 8.21875 -5.421875 7.65625 -5.421875 C 8.34375 -4.835938 8.6875 -4.160156 8.6875 -3.390625 C 8.6875 -2.660156 8.507812 -2.019531 8.15625 -1.46875 C 7.800781 -0.914062 7.316406 -0.492188 6.703125 -0.203125 C 6.085938 0.0859375 5.40625 0.234375 4.65625 0.234375 Z M 4.65625 0.234375 "/>
            </g>
        </g>
    </g>
    <g fill="#575656" fill-opacity="1">
        <g transform="translate(162.965345, 118.137707)">
            <g/>
        </g>
    </g>
    <g fill="#575656" fill-opacity="1">
        <g transform="translate(166.264143, 118.137707)">
            <g>
                <path d="M 0.734375 0.03125 C 0.660156 0.03125 0.601562 0.00390625 0.5625 -0.046875 C 0.53125 -0.0976562 0.515625 -0.160156 0.515625 -0.234375 C 0.523438 -0.347656 0.546875 -0.414062 0.578125 -0.4375 C 0.617188 -0.46875 0.695312 -0.484375 0.8125 -0.484375 C 1.039062 -0.484375 1.210938 -0.523438 1.328125 -0.609375 C 1.441406 -0.691406 1.507812 -0.789062 1.53125 -0.90625 C 1.5625 -1.03125 1.582031 -1.195312 1.59375 -1.40625 L 1.59375 -6.140625 C 1.582031 -6.335938 1.5625 -6.5 1.53125 -6.625 C 1.507812 -6.75 1.441406 -6.851562 1.328125 -6.9375 C 1.210938 -7.019531 1.039062 -7.0625 0.8125 -7.0625 L 0.734375 -7.0625 C 0.660156 -7.0625 0.609375 -7.070312 0.578125 -7.09375 C 0.546875 -7.125 0.523438 -7.195312 0.515625 -7.3125 C 0.515625 -7.382812 0.53125 -7.445312 0.5625 -7.5 C 0.601562 -7.550781 0.660156 -7.578125 0.734375 -7.578125 C 1.242188 -7.554688 1.710938 -7.546875 2.140625 -7.546875 C 2.617188 -7.546875 3.117188 -7.554688 3.640625 -7.578125 C 3.703125 -7.578125 3.75 -7.550781 3.78125 -7.5 C 3.820312 -7.445312 3.84375 -7.382812 3.84375 -7.3125 C 3.84375 -7.195312 3.820312 -7.125 3.78125 -7.09375 C 3.738281 -7.070312 3.660156 -7.0625 3.546875 -7.0625 C 3.316406 -7.0625 3.144531 -7.019531 3.03125 -6.9375 C 2.925781 -6.851562 2.859375 -6.75 2.828125 -6.625 C 2.796875 -6.5 2.773438 -6.335938 2.765625 -6.140625 L 2.765625 -4.03125 L 6.53125 -4.03125 L 6.53125 -6.140625 C 6.519531 -6.335938 6.5 -6.5 6.46875 -6.625 C 6.445312 -6.75 6.378906 -6.851562 6.265625 -6.9375 C 6.148438 -7.019531 5.976562 -7.0625 5.75 -7.0625 L 5.671875 -7.0625 C 5.597656 -7.0625 5.539062 -7.070312 5.5 -7.09375 C 5.46875 -7.125 5.445312 -7.195312 5.4375 -7.3125 C 5.4375 -7.382812 5.457031 -7.445312 5.5 -7.5 C 5.539062 -7.550781 5.59375 -7.578125 5.65625 -7.578125 C 6.175781 -7.554688 6.671875 -7.546875 7.140625 -7.546875 C 7.585938 -7.546875 8.066406 -7.554688 8.578125 -7.578125 C 8.640625 -7.578125 8.6875 -7.550781 8.71875 -7.5 C 8.757812 -7.445312 8.78125 -7.382812 8.78125 -7.3125 C 8.78125 -7.195312 8.753906 -7.125 8.703125 -7.09375 C 8.660156 -7.070312 8.585938 -7.0625 8.484375 -7.0625 C 8.253906 -7.0625 8.082031 -7.019531 7.96875 -6.9375 C 7.851562 -6.851562 7.78125 -6.75 7.75 -6.625 C 7.71875 -6.5 7.703125 -6.335938 7.703125 -6.140625 L 7.703125 -1.40625 C 7.703125 -1.195312 7.71875 -1.03125 7.75 -0.90625 C 7.78125 -0.789062 7.851562 -0.691406 7.96875 -0.609375 C 8.082031 -0.523438 8.253906 -0.484375 8.484375 -0.484375 L 8.5625 -0.484375 C 8.632812 -0.484375 8.6875 -0.46875 8.71875 -0.4375 C 8.757812 -0.40625 8.78125 -0.335938 8.78125 -0.234375 C 8.78125 -0.160156 8.757812 -0.0976562 8.71875 -0.046875 C 8.6875 0.00390625 8.640625 0.03125 8.578125 0.03125 C 8.066406 0.0078125 7.585938 0 7.140625 0 C 6.671875 0 6.175781 0.0078125 5.65625 0.03125 C 5.59375 0.03125 5.539062 0.00390625 5.5 -0.046875 C 5.457031 -0.0976562 5.4375 -0.160156 5.4375 -0.234375 C 5.445312 -0.347656 5.472656 -0.414062 5.515625 -0.4375 C 5.554688 -0.46875 5.632812 -0.484375 5.75 -0.484375 C 5.976562 -0.484375 6.148438 -0.523438 6.265625 -0.609375 C 6.378906 -0.691406 6.445312 -0.789062 6.46875 -0.90625 C 6.5 -1.03125 6.519531 -1.195312 6.53125 -1.40625 L 6.53125 -3.515625 L 2.765625 -3.515625 L 2.765625 -1.40625 C 2.773438 -1.195312 2.796875 -1.03125 2.828125 -0.90625 C 2.859375 -0.789062 2.925781 -0.691406 3.03125 -0.609375 C 3.144531 -0.523438 3.316406 -0.484375 3.546875 -0.484375 L 3.625 -0.484375 C 3.695312 -0.484375 3.75 -0.46875 3.78125 -0.4375 C 3.820312 -0.40625 3.84375 -0.335938 3.84375 -0.234375 C 3.84375 -0.160156 3.820312 -0.0976562 3.78125 -0.046875 C 3.75 0.00390625 3.703125 0.03125 3.640625 0.03125 C 3.128906 0.0078125 2.632812 0 2.15625 0 C 1.71875 0 1.242188 0.0078125 0.734375 0.03125 Z M 0.734375 0.03125 "/>
            </g>
        </g>
    </g>
    <g fill="#575656" fill-opacity="1">
        <g transform="translate(176.184359, 118.137707)">
            <g>
                <path d="M 4.375 0.234375 C 3.613281 0.234375 2.941406 0.0546875 2.359375 -0.296875 C 1.785156 -0.660156 1.34375 -1.140625 1.03125 -1.734375 C 0.71875 -2.335938 0.5625 -2.984375 0.5625 -3.671875 C 0.5625 -4.503906 0.75 -5.234375 1.125 -5.859375 C 1.507812 -6.484375 1.992188 -6.957031 2.578125 -7.28125 C 3.171875 -7.613281 3.769531 -7.78125 4.375 -7.78125 C 5.132812 -7.78125 5.804688 -7.597656 6.390625 -7.234375 C 6.984375 -6.867188 7.4375 -6.390625 7.75 -5.796875 C 8.0625 -5.203125 8.21875 -4.566406 8.21875 -3.890625 C 8.21875 -3.046875 8.023438 -2.3125 7.640625 -1.6875 C 7.265625 -1.0625 6.773438 -0.582031 6.171875 -0.25 C 5.578125 0.0703125 4.976562 0.234375 4.375 0.234375 Z M 4.359375 -0.28125 C 4.898438 -0.28125 5.351562 -0.441406 5.71875 -0.765625 C 6.082031 -1.085938 6.351562 -1.519531 6.53125 -2.0625 C 6.707031 -2.613281 6.796875 -3.222656 6.796875 -3.890625 C 6.796875 -4.503906 6.703125 -5.066406 6.515625 -5.578125 C 6.335938 -6.085938 6.066406 -6.492188 5.703125 -6.796875 C 5.335938 -7.109375 4.890625 -7.265625 4.359375 -7.265625 C 3.566406 -7.265625 2.96875 -6.925781 2.5625 -6.25 C 2.15625 -5.582031 1.953125 -4.734375 1.953125 -3.703125 C 1.953125 -3.078125 2.039062 -2.503906 2.21875 -1.984375 C 2.40625 -1.472656 2.675781 -1.0625 3.03125 -0.75 C 3.394531 -0.4375 3.835938 -0.28125 4.359375 -0.28125 Z M 4.359375 -0.28125 "/>
            </g>
        </g>
    </g>
    <g fill="#575656" fill-opacity="1">
        <g transform="translate(185.602593, 118.137707)">
            <g>
                <path d="M 5.109375 0.0625 C 4.992188 0.0625 4.910156 0.0195312 4.859375 -0.0625 L 2.171875 -6.140625 L 2.140625 -6.140625 L 2.15625 -1.40625 C 2.164062 -1.1875 2.179688 -1.019531 2.203125 -0.90625 C 2.234375 -0.789062 2.300781 -0.691406 2.40625 -0.609375 C 2.507812 -0.523438 2.679688 -0.484375 2.921875 -0.484375 L 2.984375 -0.484375 C 3.066406 -0.484375 3.125 -0.46875 3.15625 -0.4375 C 3.195312 -0.40625 3.222656 -0.335938 3.234375 -0.234375 C 3.234375 -0.160156 3.210938 -0.0976562 3.171875 -0.046875 C 3.140625 0.00390625 3.085938 0.03125 3.015625 0.03125 L 2.71875 0.03125 C 2.34375 0.0078125 2.078125 0 1.921875 0 C 1.648438 0 1.253906 0.0078125 0.734375 0.03125 C 0.671875 0.03125 0.617188 0.00390625 0.578125 -0.046875 C 0.546875 -0.0976562 0.53125 -0.160156 0.53125 -0.234375 C 0.53125 -0.347656 0.550781 -0.414062 0.59375 -0.4375 C 0.632812 -0.46875 0.710938 -0.484375 0.828125 -0.484375 C 1.054688 -0.484375 1.222656 -0.523438 1.328125 -0.609375 C 1.441406 -0.691406 1.507812 -0.789062 1.53125 -0.90625 C 1.550781 -1.019531 1.566406 -1.1875 1.578125 -1.40625 L 1.609375 -6.140625 C 1.609375 -6.390625 1.578125 -6.578125 1.515625 -6.703125 C 1.460938 -6.828125 1.378906 -6.914062 1.265625 -6.96875 C 1.160156 -7.019531 1.003906 -7.0625 0.796875 -7.09375 C 0.765625 -7.101562 0.71875 -7.113281 0.65625 -7.125 C 0.59375 -7.132812 0.550781 -7.15625 0.53125 -7.1875 C 0.507812 -7.226562 0.5 -7.289062 0.5 -7.375 C 0.5 -7.46875 0.523438 -7.53125 0.578125 -7.5625 C 0.628906 -7.59375 0.710938 -7.609375 0.828125 -7.609375 C 1.296875 -7.609375 1.679688 -7.578125 1.984375 -7.515625 C 2.285156 -7.460938 2.550781 -7.34375 2.78125 -7.15625 C 3.007812 -6.976562 3.195312 -6.707031 3.34375 -6.34375 L 5.40625 -1.734375 L 5.4375 -1.734375 L 7.796875 -7.546875 L 8.46875 -7.546875 C 8.90625 -7.546875 9.378906 -7.554688 9.890625 -7.578125 C 9.960938 -7.578125 10.015625 -7.550781 10.046875 -7.5 C 10.085938 -7.445312 10.109375 -7.382812 10.109375 -7.3125 C 10.097656 -7.195312 10.070312 -7.125 10.03125 -7.09375 C 9.988281 -7.070312 9.914062 -7.0625 9.8125 -7.0625 C 9.582031 -7.0625 9.410156 -7.019531 9.296875 -6.9375 C 9.179688 -6.851562 9.109375 -6.75 9.078125 -6.625 C 9.054688 -6.5 9.039062 -6.335938 9.03125 -6.140625 L 9.03125 -1.40625 C 9.039062 -1.195312 9.054688 -1.03125 9.078125 -0.90625 C 9.109375 -0.789062 9.179688 -0.691406 9.296875 -0.609375 C 9.410156 -0.523438 9.582031 -0.484375 9.8125 -0.484375 L 9.890625 -0.484375 C 9.960938 -0.484375 10.015625 -0.46875 10.046875 -0.4375 C 10.078125 -0.40625 10.097656 -0.335938 10.109375 -0.234375 C 10.109375 -0.160156 10.085938 -0.0976562 10.046875 -0.046875 C 10.015625 0.00390625 9.960938 0.03125 9.890625 0.03125 C 9.378906 0.0078125 8.90625 0 8.46875 0 C 8 0 7.507812 0.0078125 7 0.03125 C 6.925781 0.03125 6.867188 0.00390625 6.828125 -0.046875 C 6.796875 -0.0976562 6.78125 -0.160156 6.78125 -0.234375 C 6.789062 -0.347656 6.8125 -0.414062 6.84375 -0.4375 C 6.882812 -0.46875 6.960938 -0.484375 7.078125 -0.484375 C 7.304688 -0.484375 7.472656 -0.523438 7.578125 -0.609375 C 7.691406 -0.691406 7.765625 -0.789062 7.796875 -0.90625 C 7.828125 -1.03125 7.847656 -1.195312 7.859375 -1.40625 L 7.859375 -6.140625 L 7.8125 -6.140625 L 5.359375 -0.0625 C 5.328125 0.0195312 5.242188 0.0625 5.109375 0.0625 Z M 5.109375 0.0625 "/>
            </g>
        </g>
    </g>
    <g fill="#575656" fill-opacity="1">
        <g transform="translate(196.861439, 118.137707)">
            <g>
                <path d="M 0.71875 0.03125 C 0.65625 0.03125 0.601562 0.00390625 0.5625 -0.046875 C 0.53125 -0.0976562 0.515625 -0.160156 0.515625 -0.234375 C 0.523438 -0.347656 0.546875 -0.414062 0.578125 -0.4375 C 0.617188 -0.46875 0.695312 -0.484375 0.8125 -0.484375 C 1.039062 -0.484375 1.210938 -0.523438 1.328125 -0.609375 C 1.441406 -0.691406 1.507812 -0.789062 1.53125 -0.90625 C 1.5625 -1.03125 1.582031 -1.195312 1.59375 -1.40625 L 1.59375 -6.140625 C 1.582031 -6.335938 1.5625 -6.5 1.53125 -6.625 C 1.507812 -6.75 1.441406 -6.851562 1.328125 -6.9375 C 1.210938 -7.019531 1.039062 -7.0625 0.8125 -7.0625 L 0.734375 -7.0625 C 0.660156 -7.0625 0.609375 -7.070312 0.578125 -7.09375 C 0.546875 -7.125 0.523438 -7.195312 0.515625 -7.3125 C 0.515625 -7.382812 0.53125 -7.445312 0.5625 -7.5 C 0.601562 -7.550781 0.65625 -7.578125 0.71875 -7.578125 C 1.238281 -7.554688 1.710938 -7.546875 2.140625 -7.546875 L 5.890625 -7.546875 C 6.097656 -7.546875 6.203125 -7.445312 6.203125 -7.25 L 6.234375 -5.578125 C 6.234375 -5.503906 6.195312 -5.445312 6.125 -5.40625 C 6.0625 -5.363281 5.992188 -5.34375 5.921875 -5.34375 C 5.816406 -5.34375 5.726562 -5.359375 5.65625 -5.390625 C 5.59375 -5.429688 5.554688 -5.488281 5.546875 -5.5625 C 5.484375 -5.945312 5.410156 -6.238281 5.328125 -6.4375 C 5.253906 -6.644531 5.144531 -6.796875 5 -6.890625 C 4.851562 -6.992188 4.644531 -7.050781 4.375 -7.0625 L 2.765625 -7.0625 L 2.765625 -4.03125 L 4.9375 -4.03125 C 4.988281 -4.019531 5.03125 -3.988281 5.0625 -3.9375 C 5.09375 -3.882812 5.109375 -3.820312 5.109375 -3.75 C 5.109375 -3.6875 5.09375 -3.628906 5.0625 -3.578125 C 5.03125 -3.535156 4.988281 -3.515625 4.9375 -3.515625 L 2.765625 -3.515625 L 2.765625 -1.25 C 2.785156 -1.082031 2.804688 -0.945312 2.828125 -0.84375 C 2.859375 -0.75 2.929688 -0.660156 3.046875 -0.578125 C 3.171875 -0.503906 3.359375 -0.472656 3.609375 -0.484375 L 4.703125 -0.484375 C 4.984375 -0.484375 5.195312 -0.523438 5.34375 -0.609375 C 5.488281 -0.691406 5.601562 -0.820312 5.6875 -1 C 5.769531 -1.175781 5.867188 -1.460938 5.984375 -1.859375 C 6.046875 -2.003906 6.179688 -2.0625 6.390625 -2.03125 C 6.472656 -2.019531 6.539062 -1.988281 6.59375 -1.9375 C 6.65625 -1.882812 6.6875 -1.820312 6.6875 -1.75 L 6.4375 -0.25 C 6.414062 -0.144531 6.378906 -0.078125 6.328125 -0.046875 C 6.285156 -0.015625 6.207031 0 6.09375 0 L 2.15625 0 C 1.71875 0 1.238281 0.0078125 0.71875 0.03125 Z M 0.71875 0.03125 "/>
            </g>
        </g>
    </g>
    <g fill="#575656" fill-opacity="1">
        <g transform="translate(204.594432, 118.137707)">
            <g>
                <path d="M 0.078125 0.03125 C 0.00390625 0.03125 -0.046875 0.00390625 -0.078125 -0.046875 C -0.117188 -0.0976562 -0.140625 -0.160156 -0.140625 -0.234375 C -0.128906 -0.347656 -0.101562 -0.414062 -0.0625 -0.4375 C -0.03125 -0.46875 0.0078125 -0.484375 0.0625 -0.484375 C 0.125 -0.484375 0.160156 -0.484375 0.171875 -0.484375 C 0.410156 -0.484375 0.585938 -0.539062 0.703125 -0.65625 C 0.816406 -0.78125 0.90625 -0.921875 0.96875 -1.078125 C 1.039062 -1.234375 1.085938 -1.34375 1.109375 -1.40625 L 3.203125 -6.34375 C 3.253906 -6.46875 3.28125 -6.566406 3.28125 -6.640625 C 3.28125 -6.773438 3.222656 -6.875 3.109375 -6.9375 C 2.992188 -7.007812 2.835938 -7.0625 2.640625 -7.09375 C 2.503906 -7.125 2.421875 -7.148438 2.390625 -7.171875 C 2.359375 -7.191406 2.34375 -7.257812 2.34375 -7.375 C 2.34375 -7.46875 2.367188 -7.53125 2.421875 -7.5625 C 2.472656 -7.59375 2.554688 -7.609375 2.671875 -7.609375 C 3.066406 -7.609375 3.378906 -7.578125 3.609375 -7.515625 C 3.847656 -7.460938 4.054688 -7.34375 4.234375 -7.15625 C 4.410156 -6.976562 4.570312 -6.707031 4.71875 -6.34375 L 6.734375 -1.40625 C 6.847656 -1.09375 6.960938 -0.859375 7.078125 -0.703125 C 7.191406 -0.554688 7.359375 -0.484375 7.578125 -0.484375 L 7.65625 -0.484375 C 7.726562 -0.484375 7.78125 -0.46875 7.8125 -0.4375 C 7.84375 -0.40625 7.863281 -0.335938 7.875 -0.234375 C 7.875 -0.160156 7.851562 -0.0976562 7.8125 -0.046875 C 7.78125 0.00390625 7.726562 0.03125 7.65625 0.03125 C 7.144531 0.0078125 6.707031 0 6.34375 0 C 5.863281 0 5.367188 0.0078125 4.859375 0.03125 C 4.785156 0.03125 4.734375 0.00390625 4.703125 -0.046875 C 4.671875 -0.0976562 4.65625 -0.160156 4.65625 -0.234375 C 4.65625 -0.335938 4.671875 -0.40625 4.703125 -0.4375 C 4.734375 -0.46875 4.789062 -0.484375 4.875 -0.484375 C 5.144531 -0.484375 5.335938 -0.507812 5.453125 -0.5625 C 5.566406 -0.613281 5.625 -0.707031 5.625 -0.84375 C 5.625 -0.9375 5.570312 -1.125 5.46875 -1.40625 L 5.0625 -2.390625 L 2.109375 -2.390625 C 1.910156 -1.898438 1.796875 -1.613281 1.765625 -1.53125 C 1.742188 -1.445312 1.734375 -1.40625 1.734375 -1.40625 C 1.640625 -1.09375 1.59375 -0.894531 1.59375 -0.8125 C 1.59375 -0.675781 1.648438 -0.585938 1.765625 -0.546875 C 1.890625 -0.503906 2.117188 -0.484375 2.453125 -0.484375 L 2.515625 -0.484375 C 2.597656 -0.484375 2.65625 -0.46875 2.6875 -0.4375 C 2.71875 -0.40625 2.738281 -0.335938 2.75 -0.234375 C 2.75 -0.160156 2.726562 -0.0976562 2.6875 -0.046875 C 2.65625 0.00390625 2.601562 0.03125 2.53125 0.03125 C 2.019531 0.0078125 1.585938 0 1.234375 0 C 0.972656 0 0.585938 0.0078125 0.078125 0.03125 Z M 2.34375 -2.90625 L 4.859375 -2.90625 L 3.640625 -5.96875 L 3.609375 -5.96875 Z M 2.34375 -2.90625 "/>
            </g>
        </g>
    </g>
    <g fill="#575656" fill-opacity="1">
        <g transform="translate(213.032605, 118.137707)">
            <g>
                <path d="M 4.28125 0.234375 C 3.601562 0.234375 2.984375 0.0703125 2.421875 -0.25 C 1.859375 -0.570312 1.410156 -1.03125 1.078125 -1.625 C 0.742188 -2.21875 0.578125 -2.914062 0.578125 -3.71875 C 0.578125 -4.519531 0.738281 -5.226562 1.0625 -5.84375 C 1.382812 -6.457031 1.835938 -6.929688 2.421875 -7.265625 C 3.015625 -7.609375 3.707031 -7.78125 4.5 -7.78125 C 5.175781 -7.78125 5.78125 -7.640625 6.3125 -7.359375 C 6.851562 -7.085938 7.125 -6.664062 7.125 -6.09375 C 7.132812 -5.738281 7.023438 -5.4375 6.796875 -5.1875 C 6.578125 -4.9375 6.28125 -4.8125 5.90625 -4.8125 C 5.757812 -4.8125 5.632812 -4.832031 5.53125 -4.875 C 5.4375 -4.925781 5.363281 -4.988281 5.3125 -5.0625 C 5.269531 -5.132812 5.253906 -5.191406 5.265625 -5.234375 C 5.265625 -5.253906 5.316406 -5.296875 5.421875 -5.359375 C 5.535156 -5.429688 5.632812 -5.53125 5.71875 -5.65625 C 5.8125 -5.789062 5.859375 -5.945312 5.859375 -6.125 C 5.859375 -6.488281 5.734375 -6.773438 5.484375 -6.984375 C 5.242188 -7.191406 4.910156 -7.296875 4.484375 -7.296875 C 3.992188 -7.296875 3.5625 -7.160156 3.1875 -6.890625 C 2.8125 -6.617188 2.515625 -6.21875 2.296875 -5.6875 C 2.085938 -5.15625 1.984375 -4.523438 1.984375 -3.796875 C 1.984375 -3.148438 2.097656 -2.566406 2.328125 -2.046875 C 2.554688 -1.523438 2.875 -1.109375 3.28125 -0.796875 C 3.695312 -0.492188 4.171875 -0.34375 4.703125 -0.34375 C 5.140625 -0.34375 5.507812 -0.429688 5.8125 -0.609375 C 6.125 -0.796875 6.398438 -1.085938 6.640625 -1.484375 C 6.679688 -1.554688 6.738281 -1.59375 6.8125 -1.59375 C 6.875 -1.59375 6.945312 -1.566406 7.03125 -1.515625 C 7.15625 -1.429688 7.21875 -1.34375 7.21875 -1.25 C 7.21875 -1.207031 7.203125 -1.171875 7.171875 -1.140625 C 6.867188 -0.753906 6.582031 -0.460938 6.3125 -0.265625 C 6.050781 -0.0664062 5.765625 0.0625 5.453125 0.125 C 5.140625 0.195312 4.75 0.234375 4.28125 0.234375 Z M 4.28125 0.234375 "/>
            </g>
        </g>
    </g>
    <g fill="#575656" fill-opacity="1">
        <g transform="translate(221.303439, 118.137707)">
            <g>
                <path d="M 4.28125 0.234375 C 3.601562 0.234375 2.984375 0.0703125 2.421875 -0.25 C 1.859375 -0.570312 1.410156 -1.03125 1.078125 -1.625 C 0.742188 -2.21875 0.578125 -2.914062 0.578125 -3.71875 C 0.578125 -4.519531 0.738281 -5.226562 1.0625 -5.84375 C 1.382812 -6.457031 1.835938 -6.929688 2.421875 -7.265625 C 3.015625 -7.609375 3.707031 -7.78125 4.5 -7.78125 C 5.175781 -7.78125 5.78125 -7.640625 6.3125 -7.359375 C 6.851562 -7.085938 7.125 -6.664062 7.125 -6.09375 C 7.132812 -5.738281 7.023438 -5.4375 6.796875 -5.1875 C 6.578125 -4.9375 6.28125 -4.8125 5.90625 -4.8125 C 5.757812 -4.8125 5.632812 -4.832031 5.53125 -4.875 C 5.4375 -4.925781 5.363281 -4.988281 5.3125 -5.0625 C 5.269531 -5.132812 5.253906 -5.191406 5.265625 -5.234375 C 5.265625 -5.253906 5.316406 -5.296875 5.421875 -5.359375 C 5.535156 -5.429688 5.632812 -5.53125 5.71875 -5.65625 C 5.8125 -5.789062 5.859375 -5.945312 5.859375 -6.125 C 5.859375 -6.488281 5.734375 -6.773438 5.484375 -6.984375 C 5.242188 -7.191406 4.910156 -7.296875 4.484375 -7.296875 C 3.992188 -7.296875 3.5625 -7.160156 3.1875 -6.890625 C 2.8125 -6.617188 2.515625 -6.21875 2.296875 -5.6875 C 2.085938 -5.15625 1.984375 -4.523438 1.984375 -3.796875 C 1.984375 -3.148438 2.097656 -2.566406 2.328125 -2.046875 C 2.554688 -1.523438 2.875 -1.109375 3.28125 -0.796875 C 3.695312 -0.492188 4.171875 -0.34375 4.703125 -0.34375 C 5.140625 -0.34375 5.507812 -0.429688 5.8125 -0.609375 C 6.125 -0.796875 6.398438 -1.085938 6.640625 -1.484375 C 6.679688 -1.554688 6.738281 -1.59375 6.8125 -1.59375 C 6.875 -1.59375 6.945312 -1.566406 7.03125 -1.515625 C 7.15625 -1.429688 7.21875 -1.34375 7.21875 -1.25 C 7.21875 -1.207031 7.203125 -1.171875 7.171875 -1.140625 C 6.867188 -0.753906 6.582031 -0.460938 6.3125 -0.265625 C 6.050781 -0.0664062 5.765625 0.0625 5.453125 0.125 C 5.140625 0.195312 4.75 0.234375 4.28125 0.234375 Z M 4.28125 0.234375 "/>
            </g>
        </g>
    </g>
    <g fill="#575656" fill-opacity="1">
        <g transform="translate(229.574273, 118.137707)">
            <g>
                <path d="M 0.71875 0.03125 C 0.65625 0.03125 0.601562 0.00390625 0.5625 -0.046875 C 0.53125 -0.0976562 0.515625 -0.160156 0.515625 -0.234375 C 0.523438 -0.347656 0.546875 -0.414062 0.578125 -0.4375 C 0.617188 -0.46875 0.695312 -0.484375 0.8125 -0.484375 C 1.039062 -0.484375 1.210938 -0.523438 1.328125 -0.609375 C 1.441406 -0.691406 1.507812 -0.789062 1.53125 -0.90625 C 1.5625 -1.03125 1.582031 -1.195312 1.59375 -1.40625 L 1.59375 -6.140625 C 1.582031 -6.335938 1.5625 -6.5 1.53125 -6.625 C 1.507812 -6.75 1.441406 -6.851562 1.328125 -6.9375 C 1.210938 -7.019531 1.039062 -7.0625 0.8125 -7.0625 L 0.734375 -7.0625 C 0.660156 -7.0625 0.609375 -7.070312 0.578125 -7.09375 C 0.546875 -7.125 0.523438 -7.195312 0.515625 -7.3125 C 0.515625 -7.382812 0.53125 -7.445312 0.5625 -7.5 C 0.601562 -7.550781 0.65625 -7.578125 0.71875 -7.578125 C 1.238281 -7.554688 1.710938 -7.546875 2.140625 -7.546875 L 5.890625 -7.546875 C 6.097656 -7.546875 6.203125 -7.445312 6.203125 -7.25 L 6.234375 -5.578125 C 6.234375 -5.503906 6.195312 -5.445312 6.125 -5.40625 C 6.0625 -5.363281 5.992188 -5.34375 5.921875 -5.34375 C 5.816406 -5.34375 5.726562 -5.359375 5.65625 -5.390625 C 5.59375 -5.429688 5.554688 -5.488281 5.546875 -5.5625 C 5.484375 -5.945312 5.410156 -6.238281 5.328125 -6.4375 C 5.253906 -6.644531 5.144531 -6.796875 5 -6.890625 C 4.851562 -6.992188 4.644531 -7.050781 4.375 -7.0625 L 2.765625 -7.0625 L 2.765625 -4.03125 L 4.9375 -4.03125 C 4.988281 -4.019531 5.03125 -3.988281 5.0625 -3.9375 C 5.09375 -3.882812 5.109375 -3.820312 5.109375 -3.75 C 5.109375 -3.6875 5.09375 -3.628906 5.0625 -3.578125 C 5.03125 -3.535156 4.988281 -3.515625 4.9375 -3.515625 L 2.765625 -3.515625 L 2.765625 -1.25 C 2.785156 -1.082031 2.804688 -0.945312 2.828125 -0.84375 C 2.859375 -0.75 2.929688 -0.660156 3.046875 -0.578125 C 3.171875 -0.503906 3.359375 -0.472656 3.609375 -0.484375 L 4.703125 -0.484375 C 4.984375 -0.484375 5.195312 -0.523438 5.34375 -0.609375 C 5.488281 -0.691406 5.601562 -0.820312 5.6875 -1 C 5.769531 -1.175781 5.867188 -1.460938 5.984375 -1.859375 C 6.046875 -2.003906 6.179688 -2.0625 6.390625 -2.03125 C 6.472656 -2.019531 6.539062 -1.988281 6.59375 -1.9375 C 6.65625 -1.882812 6.6875 -1.820312 6.6875 -1.75 L 6.4375 -0.25 C 6.414062 -0.144531 6.378906 -0.078125 6.328125 -0.046875 C 6.285156 -0.015625 6.207031 0 6.09375 0 L 2.15625 0 C 1.71875 0 1.238281 0.0078125 0.71875 0.03125 Z M 0.71875 0.03125 "/>
            </g>
        </g>
    </g>
    <g fill="#575656" fill-opacity="1">
        <g transform="translate(237.307266, 118.137707)">
            <g>
                <path d="M 3.171875 0.234375 C 2.328125 0.234375 1.679688 0.0859375 1.234375 -0.203125 C 0.796875 -0.492188 0.578125 -0.921875 0.578125 -1.484375 C 0.578125 -1.765625 0.675781 -2 0.875 -2.1875 C 1.070312 -2.375 1.328125 -2.46875 1.640625 -2.46875 C 1.816406 -2.46875 1.953125 -2.425781 2.046875 -2.34375 C 2.148438 -2.257812 2.203125 -2.179688 2.203125 -2.109375 C 2.203125 -2.097656 2.160156 -2.066406 2.078125 -2.015625 C 1.992188 -1.972656 1.921875 -1.898438 1.859375 -1.796875 C 1.796875 -1.703125 1.765625 -1.570312 1.765625 -1.40625 C 1.765625 -1.03125 1.878906 -0.738281 2.109375 -0.53125 C 2.335938 -0.332031 2.691406 -0.234375 3.171875 -0.234375 C 3.492188 -0.234375 3.78125 -0.296875 4.03125 -0.421875 C 4.28125 -0.554688 4.46875 -0.726562 4.59375 -0.9375 C 4.726562 -1.144531 4.796875 -1.367188 4.796875 -1.609375 C 4.796875 -1.890625 4.710938 -2.132812 4.546875 -2.34375 C 4.378906 -2.550781 4.175781 -2.722656 3.9375 -2.859375 C 3.695312 -3.003906 3.375 -3.164062 2.96875 -3.34375 C 2.488281 -3.5625 2.097656 -3.757812 1.796875 -3.9375 C 1.503906 -4.113281 1.253906 -4.34375 1.046875 -4.625 C 0.835938 -4.914062 0.734375 -5.28125 0.734375 -5.71875 C 0.734375 -6.40625 0.96875 -6.921875 1.4375 -7.265625 C 1.914062 -7.609375 2.546875 -7.78125 3.328125 -7.78125 C 3.929688 -7.78125 4.457031 -7.648438 4.90625 -7.390625 C 5.351562 -7.140625 5.578125 -6.769531 5.578125 -6.28125 C 5.578125 -5.988281 5.476562 -5.75 5.28125 -5.5625 C 5.09375 -5.375 4.84375 -5.28125 4.53125 -5.28125 C 4.34375 -5.289062 4.203125 -5.335938 4.109375 -5.421875 C 4.015625 -5.503906 3.96875 -5.582031 3.96875 -5.65625 C 3.96875 -5.664062 4.019531 -5.691406 4.125 -5.734375 C 4.238281 -5.785156 4.335938 -5.859375 4.421875 -5.953125 C 4.503906 -6.046875 4.546875 -6.175781 4.546875 -6.34375 C 4.546875 -6.644531 4.429688 -6.878906 4.203125 -7.046875 C 3.972656 -7.210938 3.679688 -7.296875 3.328125 -7.296875 C 2.847656 -7.296875 2.484375 -7.179688 2.234375 -6.953125 C 1.984375 -6.722656 1.859375 -6.441406 1.859375 -6.109375 C 1.859375 -5.828125 1.929688 -5.59375 2.078125 -5.40625 C 2.234375 -5.21875 2.476562 -5.035156 2.8125 -4.859375 C 3.082031 -4.710938 3.375 -4.566406 3.6875 -4.421875 C 4.195312 -4.191406 4.601562 -3.976562 4.90625 -3.78125 C 5.207031 -3.59375 5.457031 -3.34375 5.65625 -3.03125 C 5.863281 -2.71875 5.96875 -2.332031 5.96875 -1.875 C 5.96875 -1.476562 5.84375 -1.117188 5.59375 -0.796875 C 5.34375 -0.472656 5.003906 -0.21875 4.578125 -0.03125 C 4.148438 0.144531 3.679688 0.234375 3.171875 0.234375 Z M 3.171875 0.234375 "/>
            </g>
        </g>
    </g>
    <g fill="#575656" fill-opacity="1">
        <g transform="translate(244.454614, 118.137707)">
            <g>
                <path d="M 3.171875 0.234375 C 2.328125 0.234375 1.679688 0.0859375 1.234375 -0.203125 C 0.796875 -0.492188 0.578125 -0.921875 0.578125 -1.484375 C 0.578125 -1.765625 0.675781 -2 0.875 -2.1875 C 1.070312 -2.375 1.328125 -2.46875 1.640625 -2.46875 C 1.816406 -2.46875 1.953125 -2.425781 2.046875 -2.34375 C 2.148438 -2.257812 2.203125 -2.179688 2.203125 -2.109375 C 2.203125 -2.097656 2.160156 -2.066406 2.078125 -2.015625 C 1.992188 -1.972656 1.921875 -1.898438 1.859375 -1.796875 C 1.796875 -1.703125 1.765625 -1.570312 1.765625 -1.40625 C 1.765625 -1.03125 1.878906 -0.738281 2.109375 -0.53125 C 2.335938 -0.332031 2.691406 -0.234375 3.171875 -0.234375 C 3.492188 -0.234375 3.78125 -0.296875 4.03125 -0.421875 C 4.28125 -0.554688 4.46875 -0.726562 4.59375 -0.9375 C 4.726562 -1.144531 4.796875 -1.367188 4.796875 -1.609375 C 4.796875 -1.890625 4.710938 -2.132812 4.546875 -2.34375 C 4.378906 -2.550781 4.175781 -2.722656 3.9375 -2.859375 C 3.695312 -3.003906 3.375 -3.164062 2.96875 -3.34375 C 2.488281 -3.5625 2.097656 -3.757812 1.796875 -3.9375 C 1.503906 -4.113281 1.253906 -4.34375 1.046875 -4.625 C 0.835938 -4.914062 0.734375 -5.28125 0.734375 -5.71875 C 0.734375 -6.40625 0.96875 -6.921875 1.4375 -7.265625 C 1.914062 -7.609375 2.546875 -7.78125 3.328125 -7.78125 C 3.929688 -7.78125 4.457031 -7.648438 4.90625 -7.390625 C 5.351562 -7.140625 5.578125 -6.769531 5.578125 -6.28125 C 5.578125 -5.988281 5.476562 -5.75 5.28125 -5.5625 C 5.09375 -5.375 4.84375 -5.28125 4.53125 -5.28125 C 4.34375 -5.289062 4.203125 -5.335938 4.109375 -5.421875 C 4.015625 -5.503906 3.96875 -5.582031 3.96875 -5.65625 C 3.96875 -5.664062 4.019531 -5.691406 4.125 -5.734375 C 4.238281 -5.785156 4.335938 -5.859375 4.421875 -5.953125 C 4.503906 -6.046875 4.546875 -6.175781 4.546875 -6.34375 C 4.546875 -6.644531 4.429688 -6.878906 4.203125 -7.046875 C 3.972656 -7.210938 3.679688 -7.296875 3.328125 -7.296875 C 2.847656 -7.296875 2.484375 -7.179688 2.234375 -6.953125 C 1.984375 -6.722656 1.859375 -6.441406 1.859375 -6.109375 C 1.859375 -5.828125 1.929688 -5.59375 2.078125 -5.40625 C 2.234375 -5.21875 2.476562 -5.035156 2.8125 -4.859375 C 3.082031 -4.710938 3.375 -4.566406 3.6875 -4.421875 C 4.195312 -4.191406 4.601562 -3.976562 4.90625 -3.78125 C 5.207031 -3.59375 5.457031 -3.34375 5.65625 -3.03125 C 5.863281 -2.71875 5.96875 -2.332031 5.96875 -1.875 C 5.96875 -1.476562 5.84375 -1.117188 5.59375 -0.796875 C 5.34375 -0.472656 5.003906 -0.21875 4.578125 -0.03125 C 4.148438 0.144531 3.679688 0.234375 3.171875 0.234375 Z M 3.171875 0.234375 "/>
            </g>
        </g>
    </g>
    <g fill="#575656" fill-opacity="1">
        <g transform="translate(251.601962, 118.137707)">
            <g>
                <path d="M 4.375 0.234375 C 3.613281 0.234375 2.941406 0.0546875 2.359375 -0.296875 C 1.785156 -0.660156 1.34375 -1.140625 1.03125 -1.734375 C 0.71875 -2.335938 0.5625 -2.984375 0.5625 -3.671875 C 0.5625 -4.503906 0.75 -5.234375 1.125 -5.859375 C 1.507812 -6.484375 1.992188 -6.957031 2.578125 -7.28125 C 3.171875 -7.613281 3.769531 -7.78125 4.375 -7.78125 C 5.132812 -7.78125 5.804688 -7.597656 6.390625 -7.234375 C 6.984375 -6.867188 7.4375 -6.390625 7.75 -5.796875 C 8.0625 -5.203125 8.21875 -4.566406 8.21875 -3.890625 C 8.21875 -3.046875 8.023438 -2.3125 7.640625 -1.6875 C 7.265625 -1.0625 6.773438 -0.582031 6.171875 -0.25 C 5.578125 0.0703125 4.976562 0.234375 4.375 0.234375 Z M 4.359375 -0.28125 C 4.898438 -0.28125 5.351562 -0.441406 5.71875 -0.765625 C 6.082031 -1.085938 6.351562 -1.519531 6.53125 -2.0625 C 6.707031 -2.613281 6.796875 -3.222656 6.796875 -3.890625 C 6.796875 -4.503906 6.703125 -5.066406 6.515625 -5.578125 C 6.335938 -6.085938 6.066406 -6.492188 5.703125 -6.796875 C 5.335938 -7.109375 4.890625 -7.265625 4.359375 -7.265625 C 3.566406 -7.265625 2.96875 -6.925781 2.5625 -6.25 C 2.15625 -5.582031 1.953125 -4.734375 1.953125 -3.703125 C 1.953125 -3.078125 2.039062 -2.503906 2.21875 -1.984375 C 2.40625 -1.472656 2.675781 -1.0625 3.03125 -0.75 C 3.394531 -0.4375 3.835938 -0.28125 4.359375 -0.28125 Z M 4.359375 -0.28125 "/>
            </g>
        </g>
    </g>
    <g fill="#575656" fill-opacity="1">
        <g transform="translate(261.020185, 118.137707)">
            <g>
                <path d="M 0.71875 0.03125 C 0.644531 0.03125 0.585938 0.00390625 0.546875 -0.046875 C 0.515625 -0.0976562 0.5 -0.160156 0.5 -0.234375 C 0.507812 -0.347656 0.535156 -0.414062 0.578125 -0.4375 C 0.617188 -0.46875 0.691406 -0.484375 0.796875 -0.484375 C 1.023438 -0.484375 1.195312 -0.523438 1.3125 -0.609375 C 1.425781 -0.691406 1.5 -0.789062 1.53125 -0.90625 C 1.5625 -1.03125 1.582031 -1.195312 1.59375 -1.40625 L 1.59375 -6.140625 C 1.582031 -6.347656 1.5625 -6.507812 1.53125 -6.625 C 1.5 -6.75 1.425781 -6.851562 1.3125 -6.9375 C 1.195312 -7.019531 1.023438 -7.0625 0.796875 -7.0625 L 0.734375 -7.0625 C 0.660156 -7.0625 0.601562 -7.070312 0.5625 -7.09375 C 0.53125 -7.125 0.507812 -7.195312 0.5 -7.3125 C 0.5 -7.382812 0.515625 -7.445312 0.546875 -7.5 C 0.585938 -7.550781 0.644531 -7.578125 0.71875 -7.578125 C 1.238281 -7.554688 1.710938 -7.546875 2.140625 -7.546875 C 2.617188 -7.546875 3.117188 -7.554688 3.640625 -7.578125 C 3.703125 -7.578125 3.75 -7.550781 3.78125 -7.5 C 3.820312 -7.445312 3.84375 -7.382812 3.84375 -7.3125 C 3.84375 -7.195312 3.816406 -7.125 3.765625 -7.09375 C 3.722656 -7.070312 3.644531 -7.0625 3.53125 -7.0625 C 3.300781 -7.0625 3.128906 -7.019531 3.015625 -6.9375 C 2.910156 -6.851562 2.84375 -6.75 2.8125 -6.625 C 2.78125 -6.5 2.765625 -6.335938 2.765625 -6.140625 L 2.765625 -1.40625 C 2.765625 -1.195312 2.78125 -1.03125 2.8125 -0.90625 C 2.84375 -0.789062 2.910156 -0.691406 3.015625 -0.609375 C 3.128906 -0.523438 3.300781 -0.484375 3.53125 -0.484375 L 3.609375 -0.484375 C 3.691406 -0.484375 3.75 -0.46875 3.78125 -0.4375 C 3.820312 -0.40625 3.84375 -0.335938 3.84375 -0.234375 C 3.84375 -0.160156 3.820312 -0.0976562 3.78125 -0.046875 C 3.75 0.00390625 3.703125 0.03125 3.640625 0.03125 C 3.128906 0.0078125 2.632812 0 2.15625 0 C 1.71875 0 1.238281 0.0078125 0.71875 0.03125 Z M 0.71875 0.03125 "/>
            </g>
        </g>
    </g>
    <g fill="#575656" fill-opacity="1">
        <g transform="translate(266.004212, 118.137707)">
            <g>
                <path d="M 0.734375 0.03125 C 0.660156 0.03125 0.601562 0.00390625 0.5625 -0.046875 C 0.53125 -0.0976562 0.515625 -0.160156 0.515625 -0.234375 C 0.523438 -0.347656 0.546875 -0.414062 0.578125 -0.4375 C 0.617188 -0.46875 0.695312 -0.484375 0.8125 -0.484375 C 1.039062 -0.484375 1.210938 -0.523438 1.328125 -0.609375 C 1.441406 -0.691406 1.507812 -0.789062 1.53125 -0.90625 C 1.5625 -1.03125 1.582031 -1.195312 1.59375 -1.40625 L 1.59375 -6.125 C 1.582031 -6.332031 1.5625 -6.492188 1.53125 -6.609375 C 1.507812 -6.734375 1.441406 -6.835938 1.328125 -6.921875 C 1.210938 -7.015625 1.039062 -7.0625 0.8125 -7.0625 L 0.734375 -7.0625 C 0.660156 -7.0625 0.609375 -7.070312 0.578125 -7.09375 C 0.546875 -7.125 0.523438 -7.195312 0.515625 -7.3125 C 0.515625 -7.382812 0.53125 -7.445312 0.5625 -7.5 C 0.601562 -7.550781 0.660156 -7.578125 0.734375 -7.578125 C 1.242188 -7.554688 1.71875 -7.546875 2.15625 -7.546875 L 4.203125 -7.546875 C 4.816406 -7.535156 5.328125 -7.4375 5.734375 -7.25 C 6.148438 -7.0625 6.453125 -6.820312 6.640625 -6.53125 C 6.835938 -6.238281 6.9375 -5.925781 6.9375 -5.59375 C 6.9375 -5.15625 6.757812 -4.753906 6.40625 -4.390625 C 6.0625 -4.023438 5.59375 -3.757812 5 -3.59375 L 5.203125 -3.28125 C 5.535156 -2.738281 5.835938 -2.269531 6.109375 -1.875 C 6.378906 -1.488281 6.675781 -1.128906 7 -0.796875 C 7.21875 -0.617188 7.453125 -0.515625 7.703125 -0.484375 C 7.722656 -0.484375 7.757812 -0.476562 7.8125 -0.46875 C 7.875 -0.46875 7.921875 -0.445312 7.953125 -0.40625 C 7.992188 -0.363281 8.015625 -0.304688 8.015625 -0.234375 C 8.015625 -0.160156 7.992188 -0.0976562 7.953125 -0.046875 C 7.921875 0.00390625 7.867188 0.03125 7.796875 0.03125 L 7.484375 0.03125 C 7.128906 0.0078125 6.875 0 6.71875 0 C 6.394531 -0.0625 6.117188 -0.171875 5.890625 -0.328125 C 5.671875 -0.492188 5.445312 -0.734375 5.21875 -1.046875 C 4.988281 -1.347656 4.664062 -1.835938 4.25 -2.515625 L 4.046875 -2.875 C 3.921875 -3.050781 3.800781 -3.171875 3.6875 -3.234375 C 3.582031 -3.304688 3.394531 -3.34375 3.125 -3.34375 L 2.765625 -3.34375 L 2.765625 -1.40625 C 2.773438 -1.195312 2.796875 -1.03125 2.828125 -0.90625 C 2.859375 -0.789062 2.925781 -0.691406 3.03125 -0.609375 C 3.144531 -0.523438 3.316406 -0.484375 3.546875 -0.484375 L 3.625 -0.484375 C 3.695312 -0.484375 3.75 -0.46875 3.78125 -0.4375 C 3.820312 -0.40625 3.84375 -0.335938 3.84375 -0.234375 C 3.84375 -0.160156 3.820312 -0.0976562 3.78125 -0.046875 C 3.75 0.00390625 3.703125 0.03125 3.640625 0.03125 C 3.128906 0.0078125 2.628906 0 2.140625 0 C 1.710938 0 1.242188 0.0078125 0.734375 0.03125 Z M 3.828125 -3.8125 C 5.015625 -3.8125 5.609375 -4.367188 5.609375 -5.484375 C 5.609375 -5.941406 5.453125 -6.320312 5.140625 -6.625 C 4.828125 -6.9375 4.316406 -7.09375 3.609375 -7.09375 C 3.378906 -7.09375 3.203125 -7.066406 3.078125 -7.015625 C 2.960938 -6.960938 2.878906 -6.867188 2.828125 -6.734375 C 2.785156 -6.597656 2.765625 -6.390625 2.765625 -6.109375 L 2.765625 -3.8125 Z M 3.828125 -3.8125 "/>
            </g>
        </g>
    </g>
    <g fill="#575656" fill-opacity="1">
        <g transform="translate(274.657517, 118.137707)">
            <g>
                <path d="M 0.71875 0.03125 C 0.65625 0.03125 0.601562 0.00390625 0.5625 -0.046875 C 0.53125 -0.0976562 0.515625 -0.160156 0.515625 -0.234375 C 0.523438 -0.347656 0.546875 -0.414062 0.578125 -0.4375 C 0.617188 -0.46875 0.695312 -0.484375 0.8125 -0.484375 C 1.039062 -0.484375 1.210938 -0.523438 1.328125 -0.609375 C 1.441406 -0.691406 1.507812 -0.789062 1.53125 -0.90625 C 1.5625 -1.03125 1.582031 -1.195312 1.59375 -1.40625 L 1.59375 -6.140625 C 1.582031 -6.335938 1.5625 -6.5 1.53125 -6.625 C 1.507812 -6.75 1.441406 -6.851562 1.328125 -6.9375 C 1.210938 -7.019531 1.039062 -7.0625 0.8125 -7.0625 L 0.734375 -7.0625 C 0.660156 -7.0625 0.609375 -7.070312 0.578125 -7.09375 C 0.546875 -7.125 0.523438 -7.195312 0.515625 -7.3125 C 0.515625 -7.382812 0.53125 -7.445312 0.5625 -7.5 C 0.601562 -7.550781 0.65625 -7.578125 0.71875 -7.578125 C 1.238281 -7.554688 1.710938 -7.546875 2.140625 -7.546875 L 5.890625 -7.546875 C 6.097656 -7.546875 6.203125 -7.445312 6.203125 -7.25 L 6.234375 -5.578125 C 6.234375 -5.503906 6.195312 -5.445312 6.125 -5.40625 C 6.0625 -5.363281 5.992188 -5.34375 5.921875 -5.34375 C 5.816406 -5.34375 5.726562 -5.359375 5.65625 -5.390625 C 5.59375 -5.429688 5.554688 -5.488281 5.546875 -5.5625 C 5.484375 -5.945312 5.410156 -6.238281 5.328125 -6.4375 C 5.253906 -6.644531 5.144531 -6.796875 5 -6.890625 C 4.851562 -6.992188 4.644531 -7.050781 4.375 -7.0625 L 2.765625 -7.0625 L 2.765625 -4.03125 L 4.9375 -4.03125 C 4.988281 -4.019531 5.03125 -3.988281 5.0625 -3.9375 C 5.09375 -3.882812 5.109375 -3.820312 5.109375 -3.75 C 5.109375 -3.6875 5.09375 -3.628906 5.0625 -3.578125 C 5.03125 -3.535156 4.988281 -3.515625 4.9375 -3.515625 L 2.765625 -3.515625 L 2.765625 -1.25 C 2.785156 -1.082031 2.804688 -0.945312 2.828125 -0.84375 C 2.859375 -0.75 2.929688 -0.660156 3.046875 -0.578125 C 3.171875 -0.503906 3.359375 -0.472656 3.609375 -0.484375 L 4.703125 -0.484375 C 4.984375 -0.484375 5.195312 -0.523438 5.34375 -0.609375 C 5.488281 -0.691406 5.601562 -0.820312 5.6875 -1 C 5.769531 -1.175781 5.867188 -1.460938 5.984375 -1.859375 C 6.046875 -2.003906 6.179688 -2.0625 6.390625 -2.03125 C 6.472656 -2.019531 6.539062 -1.988281 6.59375 -1.9375 C 6.65625 -1.882812 6.6875 -1.820312 6.6875 -1.75 L 6.4375 -0.25 C 6.414062 -0.144531 6.378906 -0.078125 6.328125 -0.046875 C 6.285156 -0.015625 6.207031 0 6.09375 0 L 2.15625 0 C 1.71875 0 1.238281 0.0078125 0.71875 0.03125 Z M 0.71875 0.03125 "/>
            </g>
        </g>
    </g>
    <g fill="#575656" fill-opacity="1">
        <g transform="translate(282.390521, 118.137707)">
            <g>
                <path d="M 3.171875 0.234375 C 2.328125 0.234375 1.679688 0.0859375 1.234375 -0.203125 C 0.796875 -0.492188 0.578125 -0.921875 0.578125 -1.484375 C 0.578125 -1.765625 0.675781 -2 0.875 -2.1875 C 1.070312 -2.375 1.328125 -2.46875 1.640625 -2.46875 C 1.816406 -2.46875 1.953125 -2.425781 2.046875 -2.34375 C 2.148438 -2.257812 2.203125 -2.179688 2.203125 -2.109375 C 2.203125 -2.097656 2.160156 -2.066406 2.078125 -2.015625 C 1.992188 -1.972656 1.921875 -1.898438 1.859375 -1.796875 C 1.796875 -1.703125 1.765625 -1.570312 1.765625 -1.40625 C 1.765625 -1.03125 1.878906 -0.738281 2.109375 -0.53125 C 2.335938 -0.332031 2.691406 -0.234375 3.171875 -0.234375 C 3.492188 -0.234375 3.78125 -0.296875 4.03125 -0.421875 C 4.28125 -0.554688 4.46875 -0.726562 4.59375 -0.9375 C 4.726562 -1.144531 4.796875 -1.367188 4.796875 -1.609375 C 4.796875 -1.890625 4.710938 -2.132812 4.546875 -2.34375 C 4.378906 -2.550781 4.175781 -2.722656 3.9375 -2.859375 C 3.695312 -3.003906 3.375 -3.164062 2.96875 -3.34375 C 2.488281 -3.5625 2.097656 -3.757812 1.796875 -3.9375 C 1.503906 -4.113281 1.253906 -4.34375 1.046875 -4.625 C 0.835938 -4.914062 0.734375 -5.28125 0.734375 -5.71875 C 0.734375 -6.40625 0.96875 -6.921875 1.4375 -7.265625 C 1.914062 -7.609375 2.546875 -7.78125 3.328125 -7.78125 C 3.929688 -7.78125 4.457031 -7.648438 4.90625 -7.390625 C 5.351562 -7.140625 5.578125 -6.769531 5.578125 -6.28125 C 5.578125 -5.988281 5.476562 -5.75 5.28125 -5.5625 C 5.09375 -5.375 4.84375 -5.28125 4.53125 -5.28125 C 4.34375 -5.289062 4.203125 -5.335938 4.109375 -5.421875 C 4.015625 -5.503906 3.96875 -5.582031 3.96875 -5.65625 C 3.96875 -5.664062 4.019531 -5.691406 4.125 -5.734375 C 4.238281 -5.785156 4.335938 -5.859375 4.421875 -5.953125 C 4.503906 -6.046875 4.546875 -6.175781 4.546875 -6.34375 C 4.546875 -6.644531 4.429688 -6.878906 4.203125 -7.046875 C 3.972656 -7.210938 3.679688 -7.296875 3.328125 -7.296875 C 2.847656 -7.296875 2.484375 -7.179688 2.234375 -6.953125 C 1.984375 -6.722656 1.859375 -6.441406 1.859375 -6.109375 C 1.859375 -5.828125 1.929688 -5.59375 2.078125 -5.40625 C 2.234375 -5.21875 2.476562 -5.035156 2.8125 -4.859375 C 3.082031 -4.710938 3.375 -4.566406 3.6875 -4.421875 C 4.195312 -4.191406 4.601562 -3.976562 4.90625 -3.78125 C 5.207031 -3.59375 5.457031 -3.34375 5.65625 -3.03125 C 5.863281 -2.71875 5.96875 -2.332031 5.96875 -1.875 C 5.96875 -1.476562 5.84375 -1.117188 5.59375 -0.796875 C 5.34375 -0.472656 5.003906 -0.21875 4.578125 -0.03125 C 4.148438 0.144531 3.679688 0.234375 3.171875 0.234375 Z M 3.171875 0.234375 "/>
            </g>
        </g>
    </g>
</svg>